<?xml version="1.0" encoding="utf-8"?>
<!-- Generator: Adobe Illustrator 19.0.1, SVG Export Plug-In . SVG Version: 6.00 Build 0)  -->
<svg version="1.1" id="Слой_1" xmlns="http://www.w3.org/2000/svg" xmlns:xlink="http://www.w3.org/1999/xlink" x="0px" y="0px"
	 viewBox="0 0 24 24" style="enable-background:new 0 0 24 24;" xml:space="preserve">
<style type="text/css">
	.st0{fill:#a4a4a4;}
</style>
<path class="st0" d="M23,6.6h-4.2C18.4,5,17.7,3.2,16.5,2c-1.2-1.3-2.8-2-4.7-2c-1.7,0-3.2,0.6-4.4,1.8C6.2,3.1,5.6,4.9,5.2,6.6H1
	L0,24h24L23,6.6z M8.9,3.2C9.7,2.4,10.6,2,11.8,2c1.3,0,2.4,0.4,3.2,1.3c0.8,0.9,1.3,2.1,1.7,3.3H7.2C7.6,5.4,8.1,4.1,8.9,3.2z
	 M2.1,22L2.9,8.6h1.9c-0.2,1.8-0.1,3.3-0.1,3.4l0,0c0,0.5,0.5,0.9,1,0.9c0.6,0,1-0.4,1-1c0,0,0,0,0-0.1l0,0c0,0-0.1-1.5,0.1-3.2
	h10.2c0.2,1.8,0.1,3.3,0.1,3.3l0,0c0,0,0,0,0,0.1c0,0.6,0.5,1,1,1c0.5,0,1-0.4,1-0.9l0,0c0-0.1,0.1-1.6-0.1-3.4h2L21.9,22H2.1z"/>
</svg>
