<?xml version="1.0" encoding="utf-8"?>
<!-- Generator: Adobe Illustrator 17.1.0, SVG Export Plug-In . SVG Version: 6.00 Build 0)  -->
<!DOCTYPE svg PUBLIC "-//W3C//DTD SVG 1.1//EN" "http://www.w3.org/Graphics/SVG/1.1/DTD/svg11.dtd">
<svg version="1.1" id="Layer_1" xmlns="http://www.w3.org/2000/svg" xmlns:xlink="http://www.w3.org/1999/xlink" x="0px" y="0px"
	 viewBox="0 0 33.3 22" enable-background="new 0 0 33.3 22" xml:space="preserve">
<g>
	<path fill="#A4A4A4" d="M4.1,14.5c-0.5,0.1-0.9,0.3-1.2,0.7c0-0.2,0-0.4,0-0.6c0-0.1,0-0.2-0.1-0.1c-0.5,0-0.9,0-1.4,0
		c-0.1,0-0.1,0-0.2,0.1L0,21.9C0,22,0,22,0.1,22c0.5,0,1.1,0,1.6,0c0.1,0,0.1,0,0.1-0.1c0.1-0.6,0.2-1.2,0.3-1.8
		c0.1-0.3,0-0.3,0.3-0.2c0.8,0.2,1.6,0.1,2.3-0.4c1.2-0.8,1.6-2.5,1.3-3.6C5.9,14.8,5.1,14.3,4.1,14.5z M3.7,18.3
		c-0.3,0.4-0.8,0.4-1.1,0.2c-0.1,0-0.1-0.1-0.1-0.2c0.1-0.4,0.1-0.9,0.2-1.3c0.1-0.3,0.2-0.5,0.4-0.7C3.4,16,3.7,15.9,3.9,16
		c0.2,0.1,0.4,0.4,0.3,0.8C4.3,17.3,4.1,17.8,3.7,18.3z"/>
	<path fill="#A4A4A4" d="M12.1,14.7c-0.7-0.2-1.4-0.3-2.1-0.2c-0.8,0-1.6,0.3-2.2,0.8c-1,0.8-1.4,2-1.3,3.2c0.2,1.6,1.8,1.8,2.7,1.1
		c0.2-0.2,0.4-0.4,0.6-0.6c0,0.2,0,0.5,0,0.7c0,0.1,0,0.1,0.1,0.1c0.5,0,0.9,0,1.4,0c0.1,0,0.1,0,0.1-0.1c0-0.5,0-1.1,0.1-1.6
		c0.2-1.1,0.4-2.1,0.6-3.2C12.2,14.8,12.2,14.7,12.1,14.7z M9.7,17.8c-0.1,0.2-0.1,0.3-0.3,0.5c-0.2,0.2-0.4,0.3-0.7,0.3
		c-0.2-0.1-0.3-0.3-0.4-0.6c0,0,0-0.1,0-0.2c0-0.6,0.3-1.1,0.7-1.6c0.3-0.2,0.6-0.3,0.9-0.3c0.1,0,0.1,0,0.1,0.1
		C10,16.6,10,17.2,9.7,17.8z"/>
	<path fill="#A4A4A4" d="M26.5,14.6c-1-0.4-2-0.2-2.8,0.4c-1,0.8-1.4,1.8-1.2,3c0.1,1,0.6,1.6,1.5,1.8c0.4,0.1,0.9,0.1,1.3,0.1
		c0.5,0,1-0.1,1.4-0.3c0.1-0.1,0.2-0.1,0.2-0.3c0-0.4-0.1-0.7-0.1-1.1c-0.4,0.2-0.8,0.3-1.1,0.3c-0.4,0-0.8,0-1.1-0.1
		c-0.2-0.1-0.3-0.2-0.4-0.4c0-0.1,0-0.1,0.1-0.1c0.1,0,0.3,0,0.4,0c0.6,0,1.3-0.1,1.9-0.3c0.7-0.3,1-0.8,0.9-1.5
		C27.5,15.4,27.2,14.9,26.5,14.6z M25.6,16.5c-0.3,0.1-0.6,0.1-0.8,0.1c-0.1,0-0.1,0-0.1,0c-0.3,0-0.3,0-0.2-0.3
		c0.2-0.4,0.6-0.6,1-0.5c0.2,0,0.3,0.1,0.4,0.3C25.9,16.3,25.8,16.4,25.6,16.5z"/>
	<path fill="#A4A4A4" d="M22.1,14.6c-0.5,0-1,0-1.5,0c-0.1,0-0.1,0-0.2,0.1c-0.1,0.6-0.2,1.1-0.3,1.7c0,0.2-0.2,0.3-0.4,0.4
		c-0.5,0.1-1,0-0.9-0.8c0.1-0.4,0.2-0.9,0.3-1.3c0-0.1,0-0.2-0.1-0.2c-0.5,0-1,0-1.5,0c-0.1,0-0.2,0-0.2,0.1c0,0.2-0.1,0.4-0.1,0.6
		c-0.1,0.5-0.2,1-0.2,1.5c0,0.7,0.4,1.2,1,1.3c0.6,0.1,1.2,0.1,1.8-0.1c0,0.1,0,0.1,0,0.1c-0.1,0.5-0.2,1.1-0.4,1.6
		c0,0.1,0,0.1,0.1,0.1c0.5,0,1.1,0,1.6,0c0.1,0,0.1,0,0.2-0.1c0.1-0.5,0.2-1,0.3-1.6c0.2-1.1,0.4-2.2,0.7-3.4
		C22.3,14.6,22.3,14.6,22.1,14.6z"/>
	<path fill="#A4A4A4" d="M15.1,14.5c-1.7,0.3-2.8,1.6-2.8,3.3c0,0.8,0.3,1.4,1,1.8c0.9,0.5,1.8,0.4,2.7,0.1c0.1,0,0.1-0.1,0.1-0.1
		c0-0.2,0-0.4,0-0.6c0,0,0,0,0,0c0-0.2,0-0.4,0-0.6c0-0.1,0-0.1-0.1-0.1c-0.3,0.1-0.6,0.2-0.9,0.2c-0.4,0-0.8-0.3-0.9-0.6
		c-0.2-0.8,0.4-1.8,1.2-1.9c0.3,0,0.6-0.1,0.8,0c0.1,0,0.2,0,0.2-0.1c0.1-0.4,0.2-0.7,0.3-1.1c0-0.1,0-0.2-0.1-0.2
		C16.2,14.4,15.6,14.4,15.1,14.5z"/>
	<path fill="#A4A4A4" d="M32.6,14.5c-1.5,0-3,0-4.4,0c-0.1,0-0.2,0-0.2,0.2c-0.1,0.3-0.1,0.7-0.2,1c0,0.1,0,0.2,0.1,0.2
		c0.4,0,0.8,0,1.2,0c0,0,0,0.1,0,0.1c-0.2,1.3-0.5,2.5-0.7,3.8c0,0.1,0,0.2,0.1,0.2c0.5,0,1,0,1.4,0c0.2,0,0.2-0.1,0.3-0.2
		c0.2-1.2,0.5-2.4,0.7-3.6c0-0.1,0.1-0.1,0.2-0.1c0.4,0,0.8,0,1.3,0c0.1,0,0.2,0,0.2-0.1c0.1-0.3,0.1-0.7,0.2-1
		C32.7,14.6,32.7,14.5,32.6,14.5z"/>
	<path fill="#A4A4A4" d="M4.7,10.2H2l-0.5,2.7h3.7C5.2,12.9,4.7,11.7,4.7,10.2z"/>
	<path fill="#A4A4A4" d="M26.3,10.2c0,0,0,1.5-0.5,2.7h6.9l0.5-2.7H26.3z"/>
	<polygon fill="#A4A4A4" points="14.5,5.7 14.3,4.4 13.2,4.6 13.6,5.8 	"/>
	<polygon fill="#A4A4A4" points="12.8,6.1 12.3,5 11.6,5.4 12.1,6.5 	"/>
	<polygon fill="#A4A4A4" points="11.5,6.9 10.8,6.1 10.3,6.6 11,7.4 	"/>
	<polygon fill="#A4A4A4" points="10.5,8 9.7,7.5 9.5,7.9 10.2,8.4 	"/>
	<polygon fill="#A4A4A4" points="9.9,9.1 9.2,8.9 9.1,9.2 9.8,9.4 	"/>
	<path fill="#A4A4A4" d="M24.8,12.9c0.3-1,0.5-2,0.5-3.1c0,0,0,0,0,0c0,0,0,0,0,0c0-5.1-3.9-9.3-8.9-9.8l0,0c-0.3,0-0.6,0-0.9,0
		c-5.4,0-9.8,4.4-9.8,9.8c0,1.1,0.2,2.1,0.5,3.1L24.8,12.9z M16.4,8.1l-0.7-0.2l0.2-1l0.7,0.3L16.4,8.1z M16.7,8.2l0.4-0.8l0.6,0.4
		l-0.4,0.8L16.7,8.2z M18.1,9.3l0.5-0.4l0.2,0.4l-0.5,0.4L18.1,9.3z M19,10.7L18.6,11v-0.4l0.4-0.2V10.7z M18.6,10.3l-0.1-0.4
		l0.5-0.2l0.1,0.4L18.6,10.3z M22.6,10l-0.8,0.4V9.7l0.8-0.3L22.6,10z M22.5,8.6l-0.8,0.5l-0.3-0.7l0.9-0.6L22.5,8.6z M22.1,7.2
		l-0.8,0.7l-0.5-0.7l1-0.7L22.1,7.2z M21.2,5.7l-0.9,1l-0.7-0.6l0.9-1.2L21.2,5.7z M18.8,3.6L20,4.4l-0.7,1.4l-1.2-0.6L18.8,3.6z
		 M18.4,8.5L17.9,9l-0.4-0.4L18,8.1L18.4,8.5z M16.6,2.8l1.3,0.4l-0.4,1.7l-1.2-0.3L16.6,2.8z M15.5,1c0.3,0,0.5,0,0.8,0l-1.6,10.9
		l-7.8,0c-0.2-0.7-0.3-1.4-0.3-2.1C6.7,5,10.7,1,15.5,1z"/>
</g>
</svg>
