<?xml version="1.0" encoding="utf-8"?>
<!-- Generator: Adobe Illustrator 17.1.0, SVG Export Plug-In . SVG Version: 6.00 Build 0)  -->
<!DOCTYPE svg PUBLIC "-//W3C//DTD SVG 1.1//EN" "http://www.w3.org/Graphics/SVG/1.1/DTD/svg11.dtd">
<svg version="1.1" id="Layer_1" xmlns="http://www.w3.org/2000/svg" xmlns:xlink="http://www.w3.org/1999/xlink" x="0px" y="0px"
	 viewBox="0 0 34 34" enable-background="new 0 0 34 34" xml:space="preserve">
<path fill="#23599C" d="M0,0v34h34V0H0z M21.9,11.1c0,0.2-0.2,0.4-0.4,0.4l-1.6,0c-1.1,0-1.3,0.4-1.3,1.3v1.7h2.7
	c0.1,0,0.2,0,0.3,0.1s0.1,0.2,0.1,0.3l0,3c0,0.2-0.2,0.4-0.4,0.4h-2.7v7.5c0,0.2-0.2,0.4-0.4,0.4h-3.1c-0.2,0-0.4-0.2-0.4-0.4v-7.5
	h-2.3c-0.2,0-0.4-0.2-0.4-0.4v-3c0-0.2,0.2-0.4,0.4-0.4h2.3v-2c0-2.7,1.7-4.4,4.3-4.4l2.3,0c0.2,0,0.4,0.2,0.4,0.4V11.1z"/>
</svg>
