<?xml version="1.0" encoding="utf-8"?>
<!-- Generator: Adobe Illustrator 17.1.0, SVG Export Plug-In . SVG Version: 6.00 Build 0)  -->
<!DOCTYPE svg PUBLIC "-//W3C//DTD SVG 1.1//EN" "http://www.w3.org/Graphics/SVG/1.1/DTD/svg11.dtd">
<svg version="1.1" id="Layer_1" xmlns="http://www.w3.org/2000/svg" xmlns:xlink="http://www.w3.org/1999/xlink" x="0px" y="0px"
	 viewBox="0 0 34 34" enable-background="new 0 0 34 34" xml:space="preserve">
<g>
	<path fill="#F53F2E" d="M15.2,11.6c-0.5-1.7-1.3-2.2-2.5-2.2c-0.1,0-0.3,0-0.4,0.1c-0.5,0.1-0.9,0.6-1.2,1.2
		c-0.2,0.7-0.3,1.3,0,2.1c0.4,1.4,1.4,2.4,2.4,2.4c0.1,0,0.3,0,0.4-0.1C15,14.9,15.7,13.2,15.2,11.6z"/>
	<path fill="#F53F2E" d="M13.5,19.3c-0.1,0-0.2,0-0.3,0c-0.9,0.1-1.7,0.4-2.3,0.9c-0.6,0.5-0.9,1.2-0.8,1.9c0.1,1.4,1.6,2.2,3.4,2.1
		c1.8-0.1,3-1.2,2.9-2.6C16.3,20.3,15.2,19.3,13.5,19.3z"/>
	<path fill="#F53F2E" d="M0,0v34h34V0H0z M15.9,25.2c-1.2,0.6-2.5,0.6-3,0.6c-0.1,0-0.2,0-0.2,0c0,0,0,0-0.1,0
		c-0.8,0-4.7-0.2-4.7-3.7c0-3.5,4.2-3.7,5.5-3.7l0,0c-0.7-1-0.6-2-0.6-2c-0.1,0-0.2,0-0.3,0c-0.5,0-1.4-0.1-2.2-0.6
		c-1-0.6-1.5-1.7-1.5-3.2c0-4.2,4.6-4.4,4.7-4.4h4.6v0.1c0,0.5-0.9,0.6-1.6,0.7C16.5,9,16,9,15.9,9.1c1.2,0.6,1.4,1.6,1.4,3.1
		c0,1.7-0.7,2.5-1.3,3.2c-0.4,0.4-0.8,0.7-0.8,1.1c0,0.4,0.5,0.8,1,1.3c0.9,0.8,2.1,1.8,2.1,3.6C18.2,23.1,17.5,24.4,15.9,25.2z
		 M26,17h-3v3h-1.9v-3h-3v-1.9h3v-3H23v3h3V17z"/>
</g>
</svg>
