<?xml version="1.0" encoding="utf-8"?>
<!-- Generator: Adobe Illustrator 17.1.0, SVG Export Plug-In . SVG Version: 6.00 Build 0)  -->
<!DOCTYPE svg PUBLIC "-//W3C//DTD SVG 1.1//EN" "http://www.w3.org/Graphics/SVG/1.1/DTD/svg11.dtd">
<svg version="1.1" id="Layer_1" xmlns="http://www.w3.org/2000/svg" xmlns:xlink="http://www.w3.org/1999/xlink" x="0px" y="0px"
	 viewBox="0 0 15 15" enable-background="new 0 0 15 15" xml:space="preserve">
<g>
	<path fill="#00519E" d="M7.5,0C3.4,0,0,3.4,0,7.5S3.4,15,7.5,15S15,11.6,15,7.5S11.6,0,7.5,0z M7.5,13C4.5,13,2,10.5,2,7.5
		C2,4.5,4.5,2,7.5,2c3,0,5.5,2.5,5.5,5.5C13,10.5,10.5,13,7.5,13z"/>
	<path fill="#00519E" d="M7.5,9.1C7,9.1,6.6,9.5,6.6,10c0,0.5,0.4,0.8,0.9,0.8c0.5,0,0.9-0.4,0.9-0.9C8.4,9.5,8,9.1,7.5,9.1z"/>
	<path fill="#00519E" d="M7.6,4.2c-1.2,0-2.1,0.6-2.3,2l1.4,0.2c0-0.4,0.3-0.8,0.8-0.8c0.4,0,0.7,0.3,0.7,0.6c0,0.3-0.2,0.5-0.4,0.6
		L7.5,7C7,7.4,6.8,7.7,6.8,8.4v0.3h1.4V8.5c0-0.4,0.1-0.5,0.5-0.8c0.6-0.5,1-0.8,1-1.6C9.7,4.7,8.6,4.2,7.6,4.2z"/>
</g>
</svg>
