<?xml version="1.0" encoding="utf-8"?>
<!-- Generator: Adobe Illustrator 17.1.0, SVG Export Plug-In . SVG Version: 6.00 Build 0)  -->
<!DOCTYPE svg PUBLIC "-//W3C//DTD SVG 1.1//EN" "http://www.w3.org/Graphics/SVG/1.1/DTD/svg11.dtd">
<svg version="1.1" id="Layer_1" xmlns="http://www.w3.org/2000/svg" xmlns:xlink="http://www.w3.org/1999/xlink" x="0px" y="0px"
	 viewBox="0 0 34 34" enable-background="new 0 0 34 34" xml:space="preserve">
<g>
	<circle fill="#93594F" cx="22.6" cy="11.6" r="1.1"/>
	<path fill="#93594F" d="M0,0v34h34V0H0z M25.8,22.7c0,2-1.7,3.7-3.7,3.7H11.5c-2,0-3.7-1.7-3.7-3.7V12.2c0-2,1.7-3.7,3.7-3.7h10.6
		c2,0,3.7,1.7,3.7,3.7V22.7z"/>
	<path fill="#93594F" d="M16.8,12.5c-3,0-5.5,2.5-5.5,5.5s2.5,5.5,5.5,5.5s5.5-2.5,5.5-5.5S19.8,12.5,16.8,12.5z M16.8,21.7
		c-2.1,0-3.8-1.7-3.8-3.8c0-2.1,1.7-3.8,3.8-3.8c2.1,0,3.8,1.7,3.8,3.8C20.6,20,18.9,21.7,16.8,21.7z"/>
</g>
</svg>
