<?xml version="1.0" encoding="utf-8"?>
<!-- Generator: Adobe Illustrator 18.0.0, SVG Export Plug-In . SVG Version: 6.00 Build 0)  -->
<!DOCTYPE svg PUBLIC "-//W3C//DTD SVG 1.1//EN" "http://www.w3.org/Graphics/SVG/1.1/DTD/svg11.dtd">
<svg version="1.1" id="Layer_1" xmlns="http://www.w3.org/2000/svg" xmlns:xlink="http://www.w3.org/1999/xlink" x="0px" y="0px"
	 viewBox="86.5 28 27.3 24" enable-background="new 86.5 28 27.3 24" xml:space="preserve">
<g>
	<path fill="#00519E" d="M100.1,52l-0.6-0.4c0,0-3.1-2.2-6-4.5c-3.3-2.6-7-6.2-7-11.2c0-4.4,3.5-7.9,7.8-7.9c2.2,0,4.2,0.9,5.8,2.6
		c1.6-1.7,3.6-2.6,5.8-2.6c4.3,0,7.9,3.5,7.9,7.9c0,5-3.8,8.6-7,11.2c-2.9,2.3-6,4.5-6,4.5L100.1,52z M94.3,30
		c-3.2,0-5.9,2.6-5.9,5.9c0,4.2,3.4,7.3,6.3,9.6c2.2,1.7,4.4,3.3,5.4,4.1c1-0.7,3.2-2.4,5.4-4.1c2.9-2.3,6.3-5.4,6.3-9.6
		c0-3.3-2.7-5.9-5.9-5.9c-2.4,0-4.1,1.5-5,2.8l-0.8,1l-0.8-1.1C97.9,30.9,96.3,30,94.3,30z"/>
</g>
</svg>
