<?xml version="1.0" encoding="utf-8"?>
<!-- Generator: Adobe Illustrator 17.1.0, SVG Export Plug-In . SVG Version: 6.00 Build 0)  -->
<!DOCTYPE svg PUBLIC "-//W3C//DTD SVG 1.1//EN" "http://www.w3.org/Graphics/SVG/1.1/DTD/svg11.dtd">
<svg version="1.1" id="Layer_1" xmlns="http://www.w3.org/2000/svg" xmlns:xlink="http://www.w3.org/1999/xlink" x="0px" y="0px"
	 viewBox="0 0 61.9 22" enable-background="new 0 0 61.9 22" xml:space="preserve">
<g>
	<path fill="#A4A4A4" d="M41.7,21.9c-0.1-0.1-0.3-0.1-0.5-0.2c-0.3-0.1-0.6-0.3-0.8-0.5c-0.3-0.3-0.6-0.8-0.7-1.2
		c-0.2-0.6-0.3-1.2-0.2-1.8c0-0.7,0.1-1.4,0.4-2.1c0.1-0.4,0.4-0.8,0.7-1.2c0.2-0.3,0.5-0.5,0.8-0.7c0.8-0.4,1.5-0.6,2.3-0.3
		c0.6,0.2,1.1,0.6,1.4,1.1c0.3,0.4,0.4,0.9,0.5,1.4c0.1,0.8,0.1,1.6-0.1,2.4c-0.1,0.6-0.3,1.1-0.6,1.6c-0.3,0.5-0.6,0.8-1,1.1
		c-0.3,0.2-0.7,0.3-1.1,0.4c-0.1,0-0.1,0-0.1,0.1C42.5,21.9,42.1,21.9,41.7,21.9z M43.9,17.5c0-0.6-0.1-1-0.3-1.4
		c-0.2-0.3-0.8-0.4-1.1-0.2c-0.4,0.2-0.6,0.6-0.8,1c-0.1,0.3-0.2,0.8-0.2,1.2s0,0.8,0.1,1.2c0.1,0.3,0.2,0.5,0.4,0.7
		c0.3,0.2,0.8,0.2,1.1,0c0.3-0.3,0.6-0.6,0.6-1C43.8,18.4,43.9,17.9,43.9,17.5z"/>
	<path fill="#A4A4A4" d="M0,21.3c0.1-0.3,0.2-0.6,0.2-0.8c0.1-0.3,0.1-0.6,0.2-1c0-0.1,0.1,0,0.1,0c0.3,0.2,0.7,0.3,1,0.4
		C2,20,2.4,20,2.8,19.9c0.7-0.3,0.8-0.7,0.8-1.4c-0.1-0.2-0.2-0.4-0.4-0.6c-0.3-0.3-0.7-0.4-1-0.6c-0.3-0.2-0.6-0.4-0.8-0.7
		C1,16.1,1,15.4,1,14.9c0-0.5,0.1-1,0.3-1.4c0.1-0.3,0.3-0.7,0.6-0.9c0.2-0.2,0.5-0.3,0.8-0.5c0.4-0.1,0.9-0.2,1.3-0.2
		c0.6,0,1.1,0.1,1.6,0.2c0.1,0.1,0.3,0.1,0.4,0.1c0.1,0,0.1,0.1,0.1,0.1c-0.1,0.6-0.3,1-0.3,1.6c-0.1,0.3,0,0.3-0.3,0.1
		c-0.6-0.3-1.2-0.4-1.9-0.3c-0.8,0.1-0.8,0.9-0.6,1.4c0.1,0.1,0.2,0.2,0.3,0.3c0.3,0.2,0.6,0.3,0.8,0.5c0.6,0.3,1,0.8,1.2,1.4
		c0.2,0.7,0.2,1.4,0.1,2.1c-0.1,0.3-0.1,0.7-0.3,1c-0.2,0.3-0.4,0.6-0.8,0.9s-0.8,0.4-1.2,0.5C2.4,22,1.7,22,1,21.8
		c-0.3-0.1-0.7-0.2-1-0.3C0,21.4,0,21.4,0,21.3z"/>
	<path fill="#A4A4A4" d="M40.1,0c0.3,0.1,0.6,0.1,0.8,0.2c0.3,0.1,0.5,0.1,0.8,0.3c0.1,0,0.1,0.1,0.1,0.2c-0.1,0.6-0.2,1.2-0.3,1.9
		c0,0.1-0.1,0.1-0.1,0.1c-0.3-0.2-0.7-0.3-1-0.4c-0.6-0.1-1.2-0.1-1.8,0.3c-0.3,0.2-0.6,0.5-0.7,0.8c-0.6,1-0.6,2-0.6,3
		c0.1,0.4,0.2,0.8,0.4,1c0.4,0.6,1,0.7,1.7,0.6c0.3-0.1,0.7-0.1,1-0.3c0.1-0.1,0.2-0.1,0.3-0.1c-0.1,0.5-0.1,0.9-0.2,1.3
		c-0.1,0.2-0.1,0.4-0.1,0.6c0,0.1-0.1,0.1-0.1,0.2c-1,0.3-1.9,0.4-2.8,0.1c-0.6-0.2-1-0.6-1.4-1c-0.2-0.3-0.4-0.6-0.5-1
		c-0.1-0.4-0.3-0.8-0.3-1.2c0-0.5,0-1,0-1.5c0-0.3,0.1-0.6,0.1-0.9c0.1-0.5,0.2-1,0.5-1.4c0.3-0.8,0.8-1.4,1.5-1.9
		c0.3-0.2,0.6-0.3,0.9-0.5c0.3-0.1,0.6-0.2,0.9-0.2c0.1,0,0.1,0,0.1-0.1C39.5,0,39.8,0,40.1,0z"/>
	<path fill="#A4A4A4" d="M61.8,21.5c-0.3,0-0.3,0-0.3-0.3c0-0.3,0-0.6,0-1c-0.1,0.2-0.1,0.4-0.1,0.6c0,0.2-0.1,0.3-0.1,0.6
		c0,0.1-0.1,0.1-0.1,0.1c-0.1,0-0.1,0-0.1-0.1c-0.1-0.3-0.1-0.6-0.1-0.8c0-0.1,0-0.1-0.1-0.2c-0.1,0.1,0,0.2,0,0.3
		c0,0.2,0,0.5,0,0.7c0,0.1-0.1,0.2-0.2,0.2c-0.1,0-0.1,0-0.1-0.1c0-0.5,0-0.9,0-1.4c0-0.1,0-0.1,0.1-0.1c0.3,0,0.3,0,0.4,0.3
		c0.1,0.3,0.1,0.6,0.2,0.9c0.1-0.2,0.1-0.3,0.1-0.6c0.1-0.2,0.1-0.4,0.1-0.6c0-0.1,0.1-0.1,0.1-0.1c0.1,0,0.2,0,0.3,0
		C61.8,20.5,61.8,21,61.8,21.5z"/>
	<path fill="#A4A4A4" d="M4.8,6C4.9,5.9,4.9,5.7,5,5.6c0.1-0.4,0.3-0.8,0.3-1.2c0.1-0.5,0.3-1,0.5-1.4C5.9,2.7,6,2.3,6.1,2.1
		c0.1-0.6,0.3-1,0.5-1.6c0.1-0.1,0.1-0.2,0.3-0.2c0.9,0,1.8,0,2.7,0c0.1,0,0.1,0.1,0.1,0.1C9.5,1.1,9.4,1.8,9.3,2.5
		C9.2,2.9,9.2,3.2,9.1,3.7C9,4.4,8.9,5.2,8.8,6.1C8.6,6.9,8.5,7.7,8.3,8.6C8.3,8.9,8.2,9.3,8.1,9.7c0,0.1-0.1,0.1-0.1,0.1
		c-0.6,0-1.1,0-1.7,0c-0.1,0-0.1-0.1-0.1-0.1C6.3,9,6.4,8.3,6.5,7.7C6.6,6.9,6.8,6,6.9,5.2C7,4.3,7.1,3.6,7.2,2.8c0-0.1,0-0.1,0-0.1
		C7.1,2.8,7,3.1,7,3.3c-0.2,0.6-0.3,1-0.6,1.6c-0.1,0.3-0.2,0.6-0.3,1C5.9,6.3,5.8,6.8,5.6,7.2C5.5,7.5,5.4,7.9,5.2,8.1
		C5,8.6,4.9,9.2,4.8,9.7c0,0.1-0.1,0.1-0.2,0.1c-0.3,0-0.7,0-1,0c-0.1,0-0.1,0-0.1-0.1c0-0.3,0-0.8,0-1.1c0-1.3-0.1-2.6-0.1-3.9
		c0-0.6,0-1.2,0-1.8c0-0.1,0-0.1-0.1-0.1C3.2,3,3.1,3.3,3.1,3.6C3,4.1,3,4.6,2.9,5C2.8,5.8,2.6,6.6,2.5,7.4C2.3,8.1,2.2,9,2.1,9.7
		c0,0.1-0.1,0.1-0.1,0.1c-0.6,0-1,0-1.6,0c-0.1,0-0.1-0.1-0.1-0.1c0-0.3,0.1-0.6,0.1-0.9c0.1-0.6,0.2-1.1,0.3-1.7
		c0-0.3,0.1-0.6,0.1-1C1,5.2,1.2,4.4,1.3,3.5C1.4,2.7,1.6,1.9,1.7,1c0.1-0.2,0.1-0.5,0.1-0.7c0-0.1,0-0.1,0.1-0.1c0.9,0,1.7,0,2.6,0
		c0.1,0,0.1,0.1,0.1,0.1c0,0.8,0,1.5,0,2.3c0,1.1,0,2.1,0,3.2C4.8,5.9,4.8,5.9,4.8,6z"/>
	<path fill="#A4A4A4" d="M56.5,2.9c0.1-0.3,0.1-0.6,0.1-1c0.1-0.5,0.1-1,0.2-1.4c0-0.1,0-0.3,0.1-0.3s0.2,0,0.3,0c0.5,0,1,0,1.4,0
		c0.1,0,0.1,0.1,0.1,0.1c-0.1,0.8-0.3,1.7-0.4,2.5c-0.1,0.7-0.2,1.4-0.3,2c-0.1,0.6-0.2,1.1-0.3,1.7c-0.1,0.4-0.1,0.8-0.2,1.2
		c-0.1,0.6-0.2,1.2-0.3,1.9c0,0.1-0.1,0.1-0.1,0.1c-0.6,0-1,0-1.6,0c-0.1,0-0.1,0-0.1-0.1c0.1-0.2,0.1-0.3,0.1-0.6
		C55.3,9,55.2,9.2,55,9.3c-0.3,0.3-0.7,0.3-1,0.4c-0.3,0.1-0.7,0-1-0.1c-0.4-0.1-0.7-0.4-1-0.8c-0.4-0.6-0.6-1.4-0.6-2.1
		c0-0.7,0.1-1.4,0.3-2.1c0.1-0.4,0.3-0.8,0.5-1.2c0.1-0.3,0.3-0.5,0.5-0.7c0.5-0.6,1.1-1,1.9-1c0.3,0,0.8,0.1,1,0.3
		C55.9,2.3,56.2,2.6,56.5,2.9z M56,5.4c0-0.2,0-0.4-0.1-0.6c-0.1-0.3-0.1-0.6-0.5-0.8c-0.6-0.3-1.1-0.1-1.4,0.3
		c-0.2,0.3-0.3,0.6-0.4,0.9c-0.2,0.6-0.2,1.2-0.1,1.9c0.1,0.3,0.1,0.6,0.4,0.7c0.5,0.3,0.9,0.2,1.2-0.1c0.3-0.3,0.6-0.7,0.7-1.2
		C55.9,6.1,56,5.8,56,5.4z"/>
	<path fill="#A4A4A4" d="M50.2,20.9c-0.1,0.1-0.2,0.2-0.3,0.3c-0.3,0.3-0.7,0.4-1.1,0.5s-0.8,0-1.1-0.2c-0.3-0.2-0.6-0.5-0.8-0.8
		c-0.6-1-0.6-2.1-0.4-3.3c0.1-0.6,0.3-1.2,0.5-1.7c0.3-0.6,0.6-1,1-1.4c0.6-0.5,1.2-0.6,1.9-0.5c0.3,0.1,0.6,0.3,0.8,0.5
		c0.1,0.1,0.2,0.3,0.3,0.4l0.1,0.1v-0.1c0.1-0.8,0.3-1.7,0.3-2.5c0-0.1,0.1-0.1,0.1-0.1c0.5,0,1,0,1.5,0c0.1,0,0.1,0,0.1,0.1
		C53.1,12.4,53,12.8,53,13c-0.1,0.6-0.2,1.2-0.3,1.9c-0.1,0.3-0.1,0.8-0.1,1.1c-0.1,1-0.3,1.9-0.4,2.9c-0.1,0.9-0.3,1.7-0.3,2.6
		c0,0.1-0.1,0.1-0.1,0.1c-0.5,0-1,0-1.4,0c-0.1,0-0.1-0.1-0.1-0.1C50.2,21.3,50.2,21.1,50.2,20.9z M48.2,18.2c0,0.4,0,0.8,0.2,1.2
		c0.1,0.1,0.2,0.3,0.4,0.3c0.7,0.1,1-0.2,1.3-0.8c0.1-0.2,0.2-0.5,0.3-0.7c0.1-0.7,0.2-1.4,0-2.1c-0.2-0.6-0.9-0.8-1.4-0.4
		c-0.3,0.2-0.5,0.5-0.6,0.8C48.3,17.2,48.2,17.7,48.2,18.2z"/>
	<path fill="#A4A4A4" d="M13,9c-0.1,0.2-0.3,0.3-0.4,0.4c-0.5,0.4-1,0.5-1.5,0.5c-0.6,0-1.1-0.2-1.4-0.7C9.4,8.8,9.2,8.3,9.2,7.7
		c0-0.4,0.1-0.8,0.3-1.2c0.2-0.6,0.6-1,1.2-1.3c0.5-0.3,1-0.3,1.5-0.4c0.4,0,0.8-0.1,1.2,0c0.1,0,0.1,0,0.1-0.1
		c0.1-0.1,0.1-0.3,0.1-0.5c0-0.2-0.1-0.4-0.3-0.5c-0.5-0.2-1-0.1-1.4-0.1s-0.9,0.1-1.3,0.3C10.2,4,10.2,4,10.2,3.8
		c0.1-0.5,0.1-1,0.2-1.4c0-0.1,0-0.1,0.1-0.1c0.6-0.1,1.1-0.3,1.7-0.3c0.6-0.1,1-0.1,1.6,0.1c0.4,0.1,0.8,0.3,1.1,0.6
		c0.3,0.3,0.4,0.6,0.5,1c0.1,0.8-0.1,1.4-0.1,2.2C15.2,6.3,15,7,15,7.5c0,0.3-0.1,0.7-0.1,1c-0.1,0.3-0.1,0.7-0.1,1
		c0,0.1-0.1,0.2-0.2,0.2c-0.4,0-0.8,0-1.3,0C13,9.8,13,9.7,13,9.7C13,9.4,13,9.2,13,9z M12.7,6.3c-0.3,0-0.5,0.1-0.8,0.1
		c-0.3,0.1-0.6,0.3-0.8,0.6c-0.1,0.3-0.1,0.5-0.1,0.8c0,0.3,0.3,0.6,0.6,0.6c0.6,0,1-0.3,1.2-0.8c0.1-0.3,0.2-0.6,0.3-1
		c0-0.2,0-0.2-0.2-0.3C12.9,6.3,12.8,6.3,12.7,6.3z"/>
	<path fill="#A4A4A4" d="M45,9c-0.1,0.1-0.3,0.3-0.5,0.4c-0.3,0.3-0.6,0.3-1,0.4c-0.4,0.1-0.8,0.1-1.2-0.1c-0.3-0.1-0.5-0.3-0.7-0.5
		c-0.5-0.7-0.6-1.4-0.4-2.2c0.1-0.7,0.5-1.2,1-1.7c0.5-0.3,1-0.5,1.6-0.6c0.5-0.1,0.9-0.1,1.4,0c0.1,0,0.2,0,0.2-0.1
		c0-0.1,0-0.1,0.1-0.2C45.6,4,45.4,3.7,45,3.7c-0.4-0.1-0.9-0.1-1.3-0.1c-0.5,0.1-0.9,0.1-1.3,0.3c-0.1,0.1-0.1,0-0.1-0.1
		c0.1-0.5,0.1-1,0.3-1.5c0-0.1,0-0.1,0.1-0.1C43,2,43.4,1.9,43.9,1.8c0.6-0.1,1.2-0.1,1.9,0.1C46.3,2,46.7,2.2,47,2.7
		c0.1,0.2,0.2,0.4,0.3,0.6c0.1,0.8,0,1.7-0.1,2.5c-0.1,0.7-0.2,1.3-0.3,2c-0.1,0.4-0.1,0.8-0.1,1.2c0,0.2-0.1,0.5-0.1,0.7
		c0,0.1-0.1,0.1-0.1,0.1c-0.5,0-0.9,0-1.4,0c-0.1,0-0.1,0-0.1-0.1C45,9.4,45,9.2,45,9z M43,7.4c0,0.3,0.1,0.6,0.4,0.8
		c0.6,0.2,1.2-0.1,1.4-0.6c0.1-0.3,0.2-0.7,0.3-1c0-0.2,0-0.2-0.2-0.3c-0.3,0-0.7,0-1,0.1C43.4,6.5,43,7,43,7.4z"/>
	<path fill="#A4A4A4" d="M30.1,7.7c-0.1,0.6-0.2,1.2-0.3,1.8c0,0.1-0.1,0.1-0.1,0.1c-1,0.3-2,0.4-3,0.1c-0.6-0.1-1.2-0.5-1.6-1
		c-0.3-0.5-0.5-1-0.6-1.5c-0.1-0.8-0.1-1.4,0.1-2.2c0.1-0.6,0.3-1.2,0.7-1.7c0.3-0.6,0.8-1,1.4-1.2c0.7-0.3,1.4-0.3,2.1-0.1
		c0.5,0.1,0.9,0.5,1.2,0.9c0.2,0.3,0.4,0.8,0.4,1.2c0.1,0.8,0,1.7-0.1,2.4c0,0.1-0.1,0.1-0.2,0.1c-1.2,0-2.3,0-3.5,0
		c-0.1,0-0.2,0-0.2,0.2c0,0.3,0.1,0.7,0.3,1c0.2,0.2,0.6,0.3,0.8,0.4c0.6,0.1,1,0.1,1.6-0.1C29.5,7.9,29.8,7.8,30.1,7.7z M27.7,5
		c0.1,0,0.2,0,0.3,0c0.1,0,0.2,0,0.3,0c0.4,0,0.5,0,0.4-0.5c0-0.3-0.1-0.6-0.3-0.8C27.9,3.3,27.3,3.5,27,4c-0.1,0.2-0.3,0.5-0.3,0.8
		c0,0.1,0,0.1,0.1,0.1C27,5,27.4,5,27.7,5z"/>
	<path fill="#A4A4A4" d="M21.3,20.4c-0.1,0.1-0.2,0.3-0.3,0.4c-0.3,0.3-0.6,0.6-1,0.8c-0.5,0.2-1,0.3-1.4,0
		c-0.3-0.1-0.5-0.4-0.7-0.7c-0.2-0.3-0.3-0.6-0.3-1c-0.1-0.4-0.1-0.9-0.1-1.3c0.1-1,0.3-2,0.3-3c0.1-0.6,0.2-1.1,0.2-1.7
		c0-0.1,0-0.1,0.1-0.1c0.6,0,1.2,0,1.8,0c0.1,0,0.1,0.1,0.1,0.1c-0.1,0.3-0.1,0.7-0.1,1c-0.1,1-0.3,1.9-0.4,2.9
		c-0.1,0.3-0.1,0.7,0,1c0.1,0.3,0.3,0.6,0.6,0.6s0.6-0.1,0.8-0.3c0.4-0.5,0.6-1,0.6-1.7c0.1-0.8,0.3-1.4,0.3-2.2
		c0.1-0.5,0.1-0.9,0.2-1.4c0-0.1,0.1-0.1,0.1-0.1c0.6,0,1.1,0,1.7,0c0.1,0,0.1,0.1,0.1,0.1c-0.1,0.5-0.1,1-0.2,1.5
		c-0.1,0.6-0.2,1.3-0.3,1.9c-0.1,0.3-0.1,0.7-0.1,1c-0.1,1-0.3,2-0.3,3c0,0.1-0.1,0.1-0.1,0.1c-0.5,0-1,0-1.5,0
		c-0.1,0-0.1-0.1-0.1-0.1c0.1-0.3,0.1-0.6,0.1-0.9C21.3,20.6,21.3,20.5,21.3,20.4z"/>
	<path fill="#A4A4A4" d="M11.4,19.7c-0.1,0.3-0.1,0.5-0.1,0.8c-0.1,0.3-0.1,0.6-0.1,1c0,0.1-0.1,0.2-0.2,0.2c-0.3,0.1-0.7,0.2-1,0.2
		c-0.6,0.1-1.3,0.1-1.9-0.1c-0.3-0.1-0.7-0.3-1-0.6c-0.4-0.5-0.6-1-0.8-1.6c-0.1-0.6-0.1-1.2-0.1-1.9c0.1-0.6,0.2-1.2,0.5-1.8
		C6.8,15.4,7,15,7.3,14.7c0.2-0.3,0.5-0.5,0.8-0.6c0.6-0.3,1.3-0.4,2-0.2c0.4,0.1,0.8,0.3,1,0.7c0.3,0.3,0.4,0.7,0.6,1.1
		c0.2,0.8,0.1,1.5,0,2.3c0,0.1-0.1,0.3-0.1,0.4s-0.1,0.1-0.2,0.1c-1.1,0-2.2,0-3.3,0c-0.1,0-0.2,0.1-0.2,0.2c0,0.3,0.1,0.7,0.3,1
		c0.2,0.2,0.4,0.3,0.7,0.4c0.6,0.1,1,0.1,1.6-0.1C10.8,19.9,11,19.8,11.4,19.7z M9,17L9,17c0.3,0,0.6,0,0.9,0c0.1,0,0.1,0,0.1-0.1
		c0.1-0.3,0.1-0.7-0.1-1c-0.3-0.6-1-0.6-1.4-0.1c-0.3,0.3-0.4,0.6-0.5,1c0,0.1,0,0.1,0.1,0.1C8.4,17,8.8,17,9,17z"/>
	<path fill="#A4A4A4" d="M33,19.7c-0.1,0.6-0.1,1-0.3,1.6c0,0,0,0,0,0.1c0,0.3-0.1,0.3-0.3,0.4c-0.6,0.1-1.2,0.3-1.8,0.2
		s-1.2-0.2-1.7-0.6c-0.6-0.4-0.8-0.9-1-1.5c-0.1-0.6-0.2-1-0.2-1.6c0-0.5,0.1-1,0.2-1.4c0.1-0.3,0.2-0.7,0.3-1.1
		c0.2-0.6,0.6-1,1-1.3c0.6-0.5,1.4-0.7,2.2-0.6c0.9,0.2,1.4,0.8,1.7,1.6c0.2,0.6,0.2,1.1,0.1,1.7c0,0.4-0.1,0.8-0.2,1.2
		c0,0.1-0.1,0.1-0.2,0.1c-1.1,0-2.2,0-3.3,0c-0.1,0-0.2,0.1-0.2,0.2c0,0.3,0.1,0.6,0.2,0.8c0.1,0.3,0.4,0.4,0.8,0.5
		c0.6,0.1,1.1,0.1,1.7-0.1C32.3,19.9,32.6,19.8,33,19.7z M30.7,17L30.7,17c0.3,0,0.6,0,0.9,0c0.1,0,0.1,0,0.1-0.1c0-0.2,0-0.3,0-0.6
		c-0.1-0.7-0.7-1-1.2-0.7c-0.5,0.3-0.6,0.7-0.8,1.2c0,0.1,0.1,0.1,0.1,0.1C30.1,17,30.3,17,30.7,17z"/>
	<path fill="#A4A4A4" d="M58.3,19.7c-0.1,0.6-0.2,1.2-0.3,1.8c0,0.1-0.1,0.1-0.1,0.2c-0.9,0.3-1.9,0.4-2.8,0.1
		c-0.6-0.2-1.2-0.6-1.5-1.2c-0.3-0.5-0.4-1-0.5-1.6c-0.1-0.8,0-1.6,0.2-2.3c0.1-0.5,0.3-1,0.6-1.4c0.2-0.3,0.5-0.7,0.9-1
		c0.5-0.3,1-0.6,1.7-0.6c0.8,0.1,1.4,0.3,1.9,1.1c0.3,0.5,0.4,1,0.4,1.6c0,0.7-0.1,1.3-0.2,1.9c0,0.1-0.1,0.1-0.2,0.1
		c-1.1,0-2.2,0-3.3,0c-0.1,0-0.2,0.1-0.2,0.2c0,0.5,0.1,0.9,0.6,1.2c0.2,0.1,0.5,0.2,0.7,0.2c0.7,0.1,1.3-0.1,2-0.3
		C58.1,19.7,58.3,19.7,58.3,19.7z M56.1,17L56.1,17c0.3,0,0.6,0,0.9,0c0.1,0,0.1,0,0.1-0.1c0-0.2,0-0.4,0-0.6
		c-0.1-0.6-0.7-0.9-1.2-0.6c-0.5,0.3-0.6,0.8-0.8,1.2c0,0.1,0.1,0.1,0.1,0.1C55.4,17,55.7,17,56.1,17z"/>
	<path fill="#A4A4A4" d="M39.1,19.4c-0.1,0.6-0.1,1.2-0.3,1.9c-0.1,0.3-0.1,0.3-0.3,0.4c-0.8,0.2-1.5,0.3-2.3,0
		c-0.3-0.1-0.6-0.3-0.8-0.5c-0.2-0.2-0.4-0.4-0.6-0.6c-0.2-0.3-0.3-0.7-0.5-1c-0.2-0.7-0.3-1.4-0.2-2.1c0-0.6,0.1-1.2,0.2-1.8
		c0.1-0.3,0.2-0.7,0.3-1s0.3-0.6,0.5-0.9c0.3-0.4,0.6-0.8,1-1.1c0.3-0.2,0.7-0.3,1-0.5c0.4-0.1,0.8-0.1,1.2-0.1
		c0.6,0.1,1,0.2,1.6,0.4c0.1,0,0.1,0.1,0.1,0.1c-0.1,0.6-0.2,1.3-0.3,1.9c-0.1-0.1-0.3-0.1-0.4-0.2c-0.4-0.2-0.8-0.3-1.3-0.3
		c-0.3,0-0.6,0.1-0.9,0.3c-0.7,0.5-1,1.1-1.2,1.9c-0.1,0.6-0.2,1.1-0.2,1.7s0.1,1,0.4,1.4c0.4,0.6,1,0.8,1.7,0.6
		C38.4,19.7,38.8,19.6,39.1,19.4z"/>
	<path fill="#A4A4A4" d="M15.5,7.9c0.6,0.2,1.3,0.3,2,0.3c0.2,0,0.4-0.1,0.6-0.1c0.3-0.3,0.3-0.8,0-1c-0.3-0.2-0.8-0.4-1.1-0.6
		C16.5,6,16.1,5.6,16,5c-0.1-0.4-0.1-0.9,0.1-1.3c0.1-0.3,0.3-0.7,0.5-1c0.2-0.3,0.6-0.5,0.8-0.6c0.6-0.2,1.1-0.3,1.7-0.3
		c0.5,0,0.9,0.1,1.4,0.1c0.1,0,0.1,0.1,0.1,0.1c-0.1,0.5-0.1,1-0.2,1.5c0,0.1-0.1,0.1-0.2,0.1c-0.4-0.1-0.8-0.1-1.2-0.1
		c-0.2,0-0.4,0.1-0.6,0.1C18.1,3.9,18,4,18,4.3c0,0.2,0.1,0.4,0.3,0.6c0.3,0.2,0.7,0.3,1,0.6c0.6,0.3,0.8,0.8,0.9,1.4
		c0.1,0.6,0.1,1.1-0.1,1.7c-0.1,0.3-0.3,0.7-0.7,0.9c-0.6,0.4-1.2,0.5-1.9,0.5c-0.8,0-1.4-0.1-2.1-0.2c-0.1,0-0.1,0-0.1-0.1
		C15.4,9,15.4,8.4,15.5,7.9z"/>
	<path fill="#A4A4A4" d="M16.6,19.6c0,0.1-0.1,0.3-0.1,0.5c0,0.4-0.1,0.8-0.1,1.2c0,0.2-0.1,0.3-0.3,0.3c-0.5,0.1-0.9,0.2-1.4,0.2
		C14,21.8,13.4,21.5,13,21c-0.3-0.3-0.5-0.8-0.6-1.2c-0.2-0.8-0.3-1.7-0.1-2.6c0.1-0.3,0.2-0.7,0.3-1c0.2-0.5,0.4-0.9,0.8-1.2
		c0.7-0.7,1.5-1.1,2.5-1c0.5,0.1,1,0.2,1.4,0.4c0.1,0,0.1,0.1,0.1,0.2c-0.1,0.6-0.2,1-0.3,1.6c0,0.1-0.1,0.1-0.1,0.1
		c-0.4-0.3-0.8-0.4-1.3-0.3c-0.3,0.1-0.6,0.2-0.8,0.5c-0.6,0.8-0.7,1.7-0.5,2.6c0.1,0.3,0.2,0.6,0.4,0.8c0.3,0.3,0.7,0.4,1.1,0.3
		C16.1,19.9,16.3,19.7,16.6,19.6z"/>
	<path fill="#A4A4A4" d="M23.6,2c0.3,0,0.7,0,1,0c0,0.6-0.2,1.2-0.2,1.8c0,0.1-0.1,0.1-0.1,0.1c-0.2,0-0.4,0-0.7,0
		c-0.2,0-0.2,0-0.3,0.2C23.2,4.6,23,5.2,23,5.8c-0.1,0.6-0.1,1-0.2,1.6c0,0.1,0,0.3,0.1,0.4C23,7.9,23.1,8,23.2,8c0.1,0,0.3,0,0.5,0
		c0.1,0,0.1,0,0.1,0.1c-0.1,0.3-0.1,0.8-0.2,1.1c0,0.1,0,0.1,0,0.2c0,0.1-0.1,0.3-0.2,0.3c-0.4,0.1-0.8,0.2-1.2,0.2
		s-0.8-0.1-1.1-0.4c-0.2-0.2-0.3-0.4-0.3-0.7c-0.1-0.5-0.1-1,0-1.4C21,6.7,21,5.9,21.2,5.2c0.1-0.3,0.1-0.6,0.1-1
		c0.1-0.9,0.3-1.7,0.4-2.6c0.1-0.3,0.1-0.5,0.1-0.8c0-0.1,0-0.1,0.1-0.1c0.6,0,1.2,0,1.7,0c0.1,0,0.1,0,0.1,0.1
		C23.7,1.3,23.7,1.7,23.6,2z"/>
	<path fill="#A4A4A4" d="M33.6,3.1c0.1-0.1,0.2-0.3,0.3-0.4c0.3-0.4,0.7-0.8,1.3-0.8c0.2,0,0.2,0,0.1,0.2c-0.1,0.3-0.3,0.7-0.4,1
		c-0.1,0.3-0.1,0.6-0.3,1c0,0.1,0,0.1-0.1,0.1c-0.2,0-0.5,0.1-0.6,0.2c-0.1,0.1-0.2,0.2-0.3,0.3c-0.2,0.5-0.3,1-0.4,1.5
		C33.1,7,33,7.7,32.9,8.3c-0.1,0.4-0.1,0.9-0.2,1.3c0,0.1,0,0.1-0.1,0.1c-0.6,0-1.2,0-1.7,0c-0.1,0-0.1,0-0.1-0.1
		C30.9,9,31,8.4,31,7.8c0.1-0.6,0.2-1.2,0.3-1.7c0.1-0.3,0.1-0.7,0.1-1c0.1-0.8,0.3-1.7,0.4-2.5c0-0.1,0.1-0.3,0.1-0.4
		c0-0.1,0.1-0.1,0.1-0.1c0.6,0,1,0,1.6,0c0.1,0,0.1,0,0.1,0.1C33.7,2.4,33.6,2.8,33.6,3.1z"/>
	<path fill="#A4A4A4" d="M50.3,3.1c0.1-0.2,0.3-0.3,0.4-0.6c0.3-0.4,0.7-0.7,1.2-0.6c0.2,0,0.2,0.1,0.1,0.2
		c-0.1,0.2-0.1,0.3-0.3,0.6c-0.1,0.4-0.3,0.9-0.3,1.4c0,0.1-0.1,0.1-0.2,0.1c-0.3,0-0.6,0.2-0.8,0.5c-0.3,0.7-0.4,1.4-0.6,2.2
		c-0.1,0.3-0.1,0.6-0.1,0.9c-0.1,0.6-0.2,1.2-0.3,1.8c0,0.1-0.1,0.1-0.1,0.1c-0.6,0-1.1,0-1.7,0c-0.1,0-0.1,0-0.1-0.1
		c0.1-0.8,0.3-1.7,0.4-2.5s0.3-1.7,0.4-2.6c0.1-0.8,0.3-1.7,0.3-2.4C48.6,2,48.7,2,48.8,2c0.5,0,1,0,1.4,0c0.1,0,0.1,0,0.1,0.1
		C50.3,2.5,50.3,2.8,50.3,3.1z"/>
	<path fill="#A4A4A4" d="M26.5,15c0.1-0.2,0.3-0.4,0.5-0.6c0.3-0.3,0.6-0.6,1-0.6c0.3,0,0.3,0,0.1,0.3c-0.1,0.3-0.2,0.6-0.3,0.8
		c-0.1,0.3-0.2,0.8-0.3,1.2c0,0.1,0,0.1-0.1,0.1c-0.5-0.1-0.8,0.3-0.9,0.7c-0.2,0.6-0.3,1-0.4,1.6c-0.1,0.9-0.3,1.9-0.4,2.8
		c0,0.1,0,0.3-0.1,0.4c0,0.1-0.1,0.1-0.1,0.1c-0.6,0-1,0-1.6,0c-0.1,0-0.1-0.1-0.1-0.1c0.1-0.6,0.2-1.2,0.3-1.9
		c0.1-0.9,0.3-1.8,0.4-2.8c0.1-1,0.3-2,0.4-3c0-0.1,0-0.1,0.1-0.1c0.5,0,1,0,1.4,0c0.1,0,0.1,0.1,0.1,0.1c0,0.3-0.1,0.5-0.1,0.8
		C26.5,14.9,26.5,14.9,26.5,15z"/>
	<path fill="#A4A4A4" d="M59.6,9.9c-0.7,0-1.2-0.6-1.2-1.2c0-0.7,0.5-1.2,1.2-1.2s1.2,0.5,1.2,1.2C60.8,9.3,60.3,9.9,59.6,9.9z
		 M58.8,8.6c0,0.6,0.4,1,0.9,1c0.4,0,0.9-0.4,0.9-1c0-0.6-0.4-0.9-0.8-0.9C59.1,7.7,58.8,8.1,58.8,8.6z"/>
	<path fill="#A4A4A4" d="M59.6,20.9c0-0.1,0-0.3,0-0.5c0-0.1,0-0.1-0.1-0.1c-0.1,0-0.1,0-0.1,0c-0.1,0-0.1,0-0.1-0.1
		s0.1-0.1,0.1-0.1c0.3,0,0.6,0,0.8,0c0.1,0,0.1,0.1,0.1,0.1s0,0.1-0.1,0.1c-0.3,0-0.3,0-0.3,0.3c0,0.3,0,0.6,0,0.8
		c0,0.1-0.1,0.1-0.1,0.1c-0.1,0-0.1-0.1-0.1-0.1C59.6,21.2,59.6,21,59.6,20.9z"/>
	<path fill="#A4A4A4" d="M59.2,8.6c0-0.1,0-0.3,0-0.4c0-0.1,0-0.1,0.1-0.1c0.2,0,0.4-0.1,0.6,0c0.2,0.1,0.3,0.3,0.1,0.5
		c-0.1,0.1-0.1,0.1-0.1,0.2C59.9,8.9,59.9,9,59.9,9s0.1,0.1,0,0.1s-0.2,0.1-0.2-0.1c0-0.1-0.1-0.1-0.1-0.3c0-0.1-0.1-0.1-0.1-0.1
		c-0.1,0-0.1,0.1-0.1,0.1c0,0.1,0,0.1,0,0.2s0,0.1-0.1,0.1s-0.1,0-0.1-0.1C59.2,8.9,59.2,8.8,59.2,8.6z M59.4,8.4
		c0,0.1-0.1,0.2,0.1,0.2c0.1,0,0.3,0,0.3-0.1s-0.1-0.1-0.2-0.1C59.5,8.3,59.4,8.3,59.4,8.4z"/>
</g>
</svg>
