<?xml version="1.0" encoding="utf-8"?>
<!-- Generator: Adobe Illustrator 17.1.0, SVG Export Plug-In . SVG Version: 6.00 Build 0)  -->
<!DOCTYPE svg PUBLIC "-//W3C//DTD SVG 1.1//EN" "http://www.w3.org/Graphics/SVG/1.1/DTD/svg11.dtd">
<svg version="1.1" id="Layer_1" xmlns="http://www.w3.org/2000/svg" xmlns:xlink="http://www.w3.org/1999/xlink" x="0px" y="0px"
	 viewBox="0 0 37.1 22" enable-background="new 0 0 37.1 22" xml:space="preserve">
<g>
	<path fill="#A4A4A4" d="M17.7,10.3c-0.4,0-0.8,0.2-0.9,0.8h1.4C18.2,10.7,18.1,10.3,17.7,10.3z"/>
	<path fill="#A4A4A4" d="M8.1,11.9c-0.3,0.3-0.5,0.7-0.1,0.8c0.3,0.1,0.9-0.1,1-0.5l0.1-0.4C8.9,11.8,8.5,11.6,8.1,11.9z"/>
	<path fill="#A4A4A4" d="M32.9,11.4c-0.1,0.5,0.2,1,0.5,1c0.4,0,0.7-0.3,0.9-0.8c0.1-0.3,0.1-0.8-0.1-1
		C33.9,10.2,33.1,10.5,32.9,11.4z"/>
	<path fill="#A4A4A4" d="M26.8,11.9c-0.3,0.3-0.5,0.7-0.1,0.8c0.3,0.1,0.9-0.1,1-0.5l0.1-0.4C27.6,11.8,27.2,11.6,26.8,11.9z"/>
	<path fill="#A4A4A4" d="M26.1,0c-2.6,0-5,0.9-6.9,2.5c1.4,1.4,2.5,3.2,3.2,5.1h-0.9c-0.5-1.8-1.6-3.3-2.9-4.5
		c-1.3,1.2-2.3,2.8-2.9,4.5h-0.9c0.6-2,1.6-3.7,3.1-5.1C16,1,13.6,0,11,0C4.9,0,0,4.9,0,11s4.9,11,11,11c2.6,0,5-1,6.9-2.5
		c-1.4-1.4-2.5-3.2-3.1-5.1h0.9c0.5,1.7,1.6,3.3,2.9,4.5c1.3-1.2,2.3-2.8,2.9-4.5h0.9c-0.6,2-1.7,3.7-3.2,5.1
		c1.9,1.6,4.3,2.5,6.9,2.5c6,0,11-5,11-11S32.2,0,26.1,0z M4.9,13.6l0.6-3.4l-1.5,3.4H3L2.8,10l-0.7,3.6H1l1-4.9h1.8l0.2,3l1.4-3
		h1.8l-0.9,4.9H4.9z M8.9,13.6l-0.1-0.2c-0.2,0.1-0.3,0.2-0.9,0.3c-0.6,0-1.3-0.4-1.2-1.2C7,10.7,8.9,11.1,9.3,11
		c0.1-0.6-0.3-0.6-0.7-0.6s-1.1,0.1-1.4,0.1l0.1-0.9c0.8-0.1,1.1-0.1,1.4-0.1c1.9,0,1.6,1.3,1.6,1.9L10,13.6
		C10,13.6,8.9,13.6,8.9,13.6z M13.3,12.4c-0.2,1.2-1.5,1.2-1.8,1.2c-0.4,0-0.8,0-1.3-0.1l0.1-0.8c0.6,0.2,1.3,0.1,1.4,0.1
		c0.3,0,0.4-0.5,0.1-0.6c-0.2-0.1-0.5-0.3-0.9-0.5c-0.3-0.1-0.6-0.4-0.4-1.2c0.2-1,1.5-1,1.7-1c0.1,0,0.5-0.1,1.1,0.1l-0.3,0.8
		c-0.3-0.1-0.8-0.1-1.1-0.1c-0.4,0.1-0.3,0.5,0,0.6c0.2,0.1,0.5,0.3,0.8,0.4C13.2,11.5,13.5,11.8,13.3,12.4z M15.3,13.4
		c-0.3,0.1-0.5,0.2-0.8,0.2c-0.3,0-1.1-0.1-0.9-1.2l0.8-3.9h1.1l-0.2,1.1h0.6l-0.2,0.9h-0.5l-0.3,1.7c-0.1,0.3,0,0.6,0.6,0.5
		L15.3,13.4z M17.7,12.6c0.4,0,1.1-0.1,1.2-0.1l-0.1,0.8c-0.3,0.1-1,0.2-1.4,0.2c-1.9,0-1.9-1.8-1.9-2.1c0.1-0.3,0.3-2.1,2.1-2.1
		c1.9,0,1.6,1.6,1.5,2.3h-2.4C16.6,12.7,17.3,12.6,17.7,12.6z M20.6,11.8l-0.3,1.9h-1.1l0.8-4.1h1L21,10c0.1-0.2,0.5-0.4,1-0.4
		l-0.3,1C21.5,10.6,21,10.5,20.6,11.8z M24.8,12.3l0.3,1c-0.3,0.1-0.8,0.3-1.4,0.3c-1.2,0-2.4-1-1.9-3.1c0.4-1.5,1.7-2.1,2.5-2.1
		c0.9,0,1.2,0.3,1.5,0.6l-0.8,0.8c-0.2-0.1-0.3-0.1-0.8-0.1c-0.3,0-1.2,0.3-1.4,1.4C22.9,12.1,23.7,12.7,24.8,12.3z M27.6,13.6
		l-0.1-0.2c-0.2,0.1-0.3,0.2-0.9,0.3c-0.5,0-1.3-0.4-1.2-1.2c0.3-1.7,2.3-1.4,2.6-1.4c0.1-0.6-0.3-0.6-0.7-0.6
		c-0.4,0-1.1,0.1-1.4,0.1l0.1-0.9c0.8-0.1,1.1-0.1,1.4-0.1c1.9,0,1.6,1.3,1.6,1.9l-0.4,2.2C28.7,13.6,27.6,13.6,27.6,13.6z
		 M30.5,11.7l-0.3,1.9h-1.1l0.8-4.1h1l0.1,0.4c0.2-0.2,0.5-0.4,1-0.4l-0.3,1.1C31.3,10.6,30.9,10.5,30.5,11.7z M34,13.6l-0.1-0.3
		c-0.2,0.1-0.6,0.3-1,0.3c-0.8,0-1.5-1.1-1.2-2.3c0.5-1.9,1.5-1.7,2.1-1.7c0.5,0,0.6,0.3,0.9,0.5l0.3-1.6h1.2l-1,5.2H34z"/>
</g>
</svg>
