<?xml version="1.0" encoding="utf-8"?>
<!-- Generator: Adobe Illustrator 17.1.0, SVG Export Plug-In . SVG Version: 6.00 Build 0)  -->
<!DOCTYPE svg PUBLIC "-//W3C//DTD SVG 1.1//EN" "http://www.w3.org/Graphics/SVG/1.1/DTD/svg11.dtd">
<svg version="1.1" id="Слой_1" xmlns="http://www.w3.org/2000/svg" xmlns:xlink="http://www.w3.org/1999/xlink" x="0px" y="0px"
	 viewBox="0 0 54 54" enable-background="new 0 0 54 54" xml:space="preserve">
<rect fill="#FCAE17" width="54" height="54"/>
<g>
	<path fill="#FFFFFF" d="M7.4,21h2.8l5.6,9h0v-9H18v12h-2.7l-5.7-9.3h0V33H7.4V21z"/>
	<path fill="#FFFFFF" d="M20.6,21h8v1.9h-5.8v3.1h5.5v1.8h-5.5v3.4h6.1V33h-8.3V21z"/>
	<path fill="#FFFFFF" d="M29.8,21h2.3l2.3,8.8h0l2.7-8.8h2.2l2.6,8.8h0l2.4-8.8h2.3l-3.5,12H41l-2.8-9h0l-2.8,9h-2.1L29.8,21z"/>
</g>
</svg>
