<?xml version="1.0" encoding="utf-8"?>
<!-- Generator: Adobe Illustrator 17.1.0, SVG Export Plug-In . SVG Version: 6.00 Build 0)  -->
<!DOCTYPE svg PUBLIC "-//W3C//DTD SVG 1.1//EN" "http://www.w3.org/Graphics/SVG/1.1/DTD/svg11.dtd">
<svg version="1.1" id="Layer_1" xmlns="http://www.w3.org/2000/svg" xmlns:xlink="http://www.w3.org/1999/xlink" x="0px" y="0px"
	 viewBox="0 0 34 34" enable-background="new 0 0 34 34" xml:space="preserve">
<g>
	<path fill="#FF6700" d="M17,14.6c1.1,0,2-0.9,2-2c0-1.2-0.8-2-2-2c-1.1,0-2,0.9-2,2C15,13.7,15.9,14.6,17,14.6z"/>
	<path fill="#FF6700" d="M0,0v34h34V0H0z M17,8c2.7,0,4.6,2,4.6,4.6c0,2.9-2.4,4.7-4.6,4.6c-2.6,0-4.6-2-4.6-4.6
		C12.4,10.3,14.1,8,17,8z M21.6,19.9c-0.7,0.4-1.4,0.7-2.1,1c-0.2,0.1-0.3,0.1-0.6,0.2c0.2,0.2,0.3,0.3,0.4,0.5
		c0.7,0.7,1.4,1.4,2.1,2.1c0.6,0.6,0.6,1.4,0.1,1.9c-0.5,0.5-1.3,0.5-1.9-0.1c-0.7-0.7-1.5-1.5-2.2-2.2c-0.2-0.2-0.4-0.2-0.6,0
		c-0.7,0.8-1.5,1.5-2.2,2.2c-0.4,0.4-1,0.6-1.5,0.4c-0.9-0.3-1.1-1.4-0.4-2.1c0.7-0.8,1.5-1.5,2.2-2.2c0.1-0.1,0.2-0.3,0.3-0.4
		c-0.9-0.4-1.8-0.8-2.6-1.2c-0.6-0.3-0.8-0.9-0.6-1.5c0.3-0.8,1.1-1.2,1.9-0.7c1,0.5,2,0.9,3.1,0.9c1.2,0,2.3-0.3,3.3-0.9
		c0.8-0.5,1.8-0.1,2,0.9C22.3,19.1,22.1,19.6,21.6,19.9z"/>
</g>
</svg>
