<?xml version="1.0" encoding="utf-8"?>
<!-- Generator: Adobe Illustrator 17.1.0, SVG Export Plug-In . SVG Version: 6.00 Build 0)  -->
<!DOCTYPE svg PUBLIC "-//W3C//DTD SVG 1.1//EN" "http://www.w3.org/Graphics/SVG/1.1/DTD/svg11.dtd">
<svg version="1.1" id="Слой_1" xmlns="http://www.w3.org/2000/svg" xmlns:xlink="http://www.w3.org/1999/xlink" x="0px" y="0px"
	 viewBox="-3 -3 60 60" enable-background="new -3 -3 60 60" xml:space="preserve">
<rect x="-3" y="-3" fill="#D6A912" width="60" height="60"/>
<g>
	<path fill="#FFFFFF" d="M4.2,11.3h3.9c2.8,0,4.5,1,4.5,3.5c0,2.7-2.1,3.6-4.7,3.6H6.4v5H4.2V11.3z M7.9,16.6c1.4,0,2.7-0.3,2.7-1.8
		c0-1.4-1.3-1.7-2.6-1.7H6.4v3.5H7.9z"/>
	<path fill="#FFFFFF" d="M14.6,11.3h4.2c2.3,0,4.4,0.9,4.4,3.5c0,1.7-1.1,2.9-2.8,3.2l3.2,5.3h-2.6l-2.8-5.1h-1.6v5.1h-2.1V11.3z
		 M18.5,16.5c1.2,0,2.6-0.3,2.6-1.8c0-1.3-1.3-1.6-2.4-1.6h-1.9v3.4H18.5z"/>
	<path fill="#FFFFFF" d="M25.3,11.3h8v1.9h-5.8v3.1h5.5v1.8h-5.5v3.4h6.1v1.9h-8.3V11.3z"/>
	<path fill="#FFFFFF" d="M4.2,30.3h3.3l3.1,8.6h0.1l3.1-8.6h3.4v12h-2.1v-9.7h0l-3.7,9.7H9.9l-3.6-9.7h0v9.7h-2V30.3z"/>
	<path fill="#FFFFFF" d="M19.9,30.3H22v12h-2.1V30.3z"/>
	<path fill="#FFFFFF" d="M34.2,37.9c0,2.9-2.1,4.7-4.8,4.7s-4.8-1.8-4.8-4.7v-7.6h2.1v7.5c0,1.4,0.6,2.9,2.7,2.9s2.7-1.5,2.7-2.9
		v-7.5h2.1V37.9z"/>
	<path fill="#FFFFFF" d="M36.8,30.3h3.3l3.1,8.6h0.1l3.1-8.6h3.4v12h-2.1v-9.7h0L44,42.4h-1.5l-3.6-9.7h0v9.7h-2V30.3z"/>
</g>
</svg>
