<?xml version="1.0" encoding="utf-8"?>
<!-- Generator: Adobe Illustrator 17.1.0, SVG Export Plug-In . SVG Version: 6.00 Build 0)  -->
<!DOCTYPE svg PUBLIC "-//W3C//DTD SVG 1.1//EN" "http://www.w3.org/Graphics/SVG/1.1/DTD/svg11.dtd">
<svg version="1.1" id="Слой_1" xmlns="http://www.w3.org/2000/svg" xmlns:xlink="http://www.w3.org/1999/xlink" x="0px" y="0px"
	 viewBox="0 0 54 54" enable-background="new 0 0 54 54" xml:space="preserve">
<rect fill="#FF002E" width="54" height="54"/>
<g>
	<path fill="#FFFFFF" d="M14.2,23.5c-0.5-0.6-1.4-1-2.2-1c-1,0-2.1,0.5-2.1,1.6c0,1.1,0.9,1.4,2.3,1.9c1.5,0.5,3.5,1.2,3.5,3.5
		c0,2.6-2,3.8-4.4,3.8c-1.6,0-3.2-0.6-4.1-1.7l1.5-1.4c0.6,0.8,1.7,1.3,2.6,1.3c1,0,2.2-0.5,2.2-1.8c0-1.3-1.3-1.6-2.8-2.1
		c-1.5-0.5-3-1.2-3-3.4c0-2.4,2.2-3.5,4.4-3.5c1.2,0,2.6,0.4,3.5,1.3L14.2,23.5z"/>
	<path fill="#FFFFFF" d="M21.6,21h1.9l5.2,12h-2.4l-1.1-2.8h-5.2L18.8,33h-2.4L21.6,21z M24.3,28.4l-1.9-4.9l-1.9,4.9H24.3z"/>
	<path fill="#FFFFFF" d="M29.8,21H32v10.1h5.1V33h-7.3V21z"/>
	<path fill="#FFFFFF" d="M38.5,21h8v1.9h-5.8v3.1h5.5v1.8h-5.5v3.4h6.1V33h-8.3V21z"/>
</g>
</svg>
