<?xml version="1.0" encoding="utf-8"?>
<!-- Generator: Adobe Illustrator 17.1.0, SVG Export Plug-In . SVG Version: 6.00 Build 0)  -->
<!DOCTYPE svg PUBLIC "-//W3C//DTD SVG 1.1//EN" "http://www.w3.org/Graphics/SVG/1.1/DTD/svg11.dtd">
<svg version="1.1" id="Слой_1" xmlns="http://www.w3.org/2000/svg" xmlns:xlink="http://www.w3.org/1999/xlink" x="0px" y="0px"
	 viewBox="0 0 27 27" enable-background="new 0 0 27 27" xml:space="preserve">
<path fill="#A5A5A5" d="M26.5,23.8l-5.2-5.2h-0.2c1.4-2,2.3-4.3,2.3-6.8C23.4,5.2,18.2,0,11.7,0S0,5.2,0,11.7s5.2,11.7,11.7,11.7
	c2.5,0,4.9-0.9,6.8-2.3v0.2l5.2,5.2c0.7,0.7,1.8,0.7,2.5,0C27.2,25.6,27.2,24.5,26.5,23.8z M11.7,19.6c-4.5,0-8.1-3.6-8.1-8.1
	s3.6-8.1,8.1-8.1s8.1,3.6,8.1,8.1C19.8,15.8,16,19.6,11.7,19.6z"/>
</svg>
