<?xml version="1.0" encoding="utf-8"?>
<!-- Generator: Adobe Illustrator 17.1.0, SVG Export Plug-In . SVG Version: 6.00 Build 0)  -->
<!DOCTYPE svg PUBLIC "-//W3C//DTD SVG 1.1//EN" "http://www.w3.org/Graphics/SVG/1.1/DTD/svg11.dtd">
<svg version="1.1" id="Слой_1" xmlns="http://www.w3.org/2000/svg" xmlns:xlink="http://www.w3.org/1999/xlink" x="0px" y="0px"
	 viewBox="0 0 27 27" enable-background="new 0 0 27 27" xml:space="preserve">
<path fill="#00519E" d="M26.7,25.2l-5.9-5.9c1.7-2,2.7-4.7,2.7-7.5C23.5,5.3,18.2,0,11.8,0S0,5.1,0,11.7s5.3,11.8,11.7,11.8
	c2.8,0,5.4-1,7.4-2.7l5.9,5.9c0.5,0.5,1.1,0.5,1.6,0l0,0C27.1,26.3,27.1,25.5,26.7,25.2z M11.7,21.2c-5.2,0-9.5-4.3-9.5-9.5
	s4.3-9.5,9.5-9.5s9.5,4.3,9.5,9.5S16.9,21.2,11.7,21.2z"/>
</svg>
