<?xml version="1.0" encoding="utf-8"?>
<!-- Generator: Adobe Illustrator 17.1.0, SVG Export Plug-In . SVG Version: 6.00 Build 0)  -->
<!DOCTYPE svg PUBLIC "-//W3C//DTD SVG 1.1//EN" "http://www.w3.org/Graphics/SVG/1.1/DTD/svg11.dtd">
<svg version="1.1" id="Layer_1" xmlns="http://www.w3.org/2000/svg" xmlns:xlink="http://www.w3.org/1999/xlink" x="0px" y="0px"
	 viewBox="0 0 51.2 22" enable-background="new 0 0 51.2 22" xml:space="preserve">
<g>
	<path fill="#A4A4A4" d="M3.1,7.1C4.2,5,5.3,3,6.3,0.9c0.1-0.3,0.3-0.4,0.6-0.4c0.3,0,0.7,0,1,0s0.4,0.1,0.2,0.3
		c-0.5,1-1.1,2-1.6,3.1C5.6,5.6,4.6,7.3,3.8,9C3.6,9.3,3.5,9.4,3.2,9.4c-0.4-0.1-1,0.1-1.3-0.1C1.6,9.1,1.6,8.6,1.6,8.1
		C1,5.8,0.5,3.5,0,1.2c-0.1-0.3,0-0.5,0.3-0.5C0.7,0.6,1,0.6,1.4,0.5c0.3-0.1,0.4,0.1,0.5,0.3c0.3,2,0.8,4,1.2,5.9
		C3.1,6.8,3.1,6.9,3.1,7.1z"/>
	<path fill="#A4A4A4" d="M37.1,8.6c-0.1,0-0.2,0.1-0.3,0.2c-0.3,0.3-0.8,0.5-1.2,0.5c-1.4,0.3-2.3-0.4-2.5-1.8c-0.1-1.1,0.1-2,0.7-3
		c0.8-1.2,2-1.8,3.6-1.4c0.1,0,0.3,0.1,0.4,0.1c0.1-0.9,0.3-1.7,0.4-2.6c0.1-0.3,0.1-0.3,0.4-0.4c0.3,0,0.7-0.1,1-0.1s0.3,0,0.3,0.3
		c-0.3,2.2-0.7,4.4-1,6.6c-0.1,0.7-0.2,1.4-0.3,2c-0.1,0.3-0.1,0.4-0.4,0.4c-0.1,0-0.1,0-0.1,0C37.2,9.4,37.2,9.4,37.1,8.6z
		 M34.7,6.7c0,0.9,0.3,1.3,0.9,1.4c0.5,0.1,1.6-0.5,1.6-1c0.1-0.8,0.2-1.5,0.3-2.2c0.1-0.2,0-0.3-0.2-0.4c-1-0.3-1.8-0.1-2.3,1
		C34.8,5.9,34.7,6.3,34.7,6.7z"/>
	<path fill="#A4A4A4" d="M32.2,7.5c0.1,1.2,0,1.4-1.1,1.7c-0.8,0.3-1.6,0.3-2.5,0.1c-0.9-0.2-1.4-0.8-1.6-1.6
		c-0.2-1.4,0.1-2.7,1.2-3.8c0.8-0.8,1.8-1,2.8-0.8c1.1,0.2,1.7,1.2,1.6,2.6c-0.1,0.9-0.1,0.9-1,0.9c-1,0-1.8,0-2.8,0
		c-0.3,0-0.3,0.1-0.3,0.3c0,0.9,0.6,1.4,1.6,1.4C30.8,8.2,31.5,7.9,32.2,7.5z M28.7,5.6c0.8,0,1.5,0,2.2,0c0.1,0,0.2,0,0.3-0.1
		c0.1-0.3-0.1-1-0.4-1.2c-0.3-0.2-0.8-0.2-1.2,0.1C29.1,4.7,28.9,5.1,28.7,5.6z"/>
	<path fill="#A4A4A4" d="M11.9,7.5c0,0.2,0,0.3,0,0.4c0,1,0,1-0.9,1.3c-0.8,0.3-1.5,0.3-2.3,0.3c-1.2-0.1-1.9-0.9-2-2.1
		C6.6,6,7,4.8,8.1,3.8C8.8,3.2,9.8,3,10.8,3.2c0.8,0.1,1.2,0.6,1.5,1.4c0.2,0.5,0.1,1.2,0.1,1.8c0,0.3-0.1,0.3-0.4,0.3
		c-1.1,0-2.2,0-3.3,0c-0.3,0-0.4,0.1-0.4,0.4c0.1,0.9,0.7,1.4,1.6,1.3C10.6,8.2,11.3,7.9,11.9,7.5z M8.5,5.6c0.8,0,1.5,0,2.3,0
		c0.1,0,0.2,0,0.2-0.1c0-0.4,0-0.8-0.3-1.1c-0.3-0.3-0.7-0.3-1-0.1C8.9,4.5,8.7,4.9,8.5,5.6z"/>
	<path fill="#A4A4A4" d="M21.2,9.4c-0.8,0-0.8,0-0.6-0.8C20.8,7.3,21,6,21.2,4.7c0.1-0.3-0.1-0.3-0.3-0.3c-0.5,0-0.5,0-0.5-0.6
		c0-0.1,0-0.2,0-0.3c0-0.3,0.1-0.5,0.5-0.4c0.4,0.1,0.6-0.1,0.6-0.5c0-0.1,0.1-0.1,0.1-0.3c0.1-1.6,1.2-2.2,2.7-2.2
		c0.3,0,0.5,0.1,0.4,0.5c0,0.3,0.1,0.5-0.1,0.8c-0.2,0.3-0.5,0.2-0.8,0.2c-0.5,0.1-0.7,0.3-0.8,0.8c-0.2,0.9-0.2,0.9,0.7,0.9
		c0.3,0,0.3,0.1,0.3,0.3c0,1,0,1-1,1c-0.3,0-0.5,0.1-0.5,0.4c-0.2,1.3-0.4,2.7-0.6,4c-0.1,0.4-0.1,0.5-0.5,0.5
		C21.4,9.3,21.3,9.4,21.2,9.4z"/>
	<path fill="#A4A4A4" d="M43.1,5.1c0.3-0.2,0.7-0.4,1-0.5c0.9-0.3,1.6,0.2,1.8,1c0.3,1.5-0.5,3.2-1.8,3.5c-0.9,0.3-1.7,0.1-2.6-0.1
		c-0.2-0.1-0.2-0.2-0.2-0.3c0.3-2,0.6-4,1-6c0-0.2,0.1-0.3,0.3-0.3c1-0.2,1-0.2,0.8,0.8C43.3,3.8,43.2,4.5,43.1,5.1z M44.8,6.6
		c0-0.6-0.2-1-0.6-1C43.7,5.6,43,6,42.9,6.5c-0.1,0.5-0.1,1-0.2,1.6c0,0.2,0,0.3,0.2,0.3c0.7,0.2,1.4-0.1,1.7-0.8
		C44.7,7.3,44.8,7,44.8,6.6z"/>
	<path fill="#A4A4A4" d="M15.1,4.3c0.5-0.5,0.9-1,1.6-1.2C17.3,3,17.3,3,17.3,3.6c0,0.3,0.1,0.6-0.1,0.9c-0.1,0.3-0.5,0.1-0.8,0.3
		c-0.3,0.1-0.5,0.2-0.8,0.4c-0.5,0.3-0.9,0.7-0.9,1.4c-0.1,0.9-0.3,1.7-0.4,2.6c0,0.3-0.1,0.3-0.3,0.3c-0.1,0-0.1,0-0.2,0
		c-1.1,0-1.1,0-1-1.1c0.3-1.6,0.5-3.1,0.8-4.7c0.1-0.3,0.1-0.3,0.3-0.3c0.3,0,0.8-0.1,1,0.1C15.2,3.4,15,3.9,15,4.2
		C15.1,4.2,15.1,4.3,15.1,4.3z"/>
	<path fill="#A4A4A4" d="M48.6,7.7C49,6.8,49.4,6,49.9,5.1C50,4.9,50,4.7,50.2,4.7c0.3-0.1,0.6-0.1,1,0c0.2,0.1,0,0.2,0,0.3
		c-0.5,1-1,2-1.6,3c-0.3,0.7-0.7,1.3-1,2c-0.4,0.8-1,1.2-1.9,1.2c-0.3,0-0.4-0.1-0.4-0.4c0-0.4,0.1-0.6,0.5-0.5
		c0.7,0.1,1.1-0.5,0.9-1.2c-0.3-1.3-0.5-2.5-0.8-3.8c-0.1-0.3-0.1-0.4,0.3-0.4C48,4.7,48,4.6,48.3,5.5C48.4,6.2,48.5,7,48.6,7.7
		C48.5,7.7,48.6,7.7,48.6,7.7z"/>
	<path fill="#A4A4A4" d="M19,3.2c0.8,0,0.8,0,0.7,0.8c-0.3,1.7-0.5,3.4-0.8,5.1c-0.1,0.3-0.1,0.4-0.4,0.3c-0.1,0-0.3,0-0.4,0
		c-0.8,0-0.8,0-0.7-0.8c0.3-1.5,0.5-3.1,0.8-4.6C18.2,3.2,18.2,3.2,19,3.2z"/>
	<path fill="#A4A4A4" d="M25.8,3.2c0.8,0,0.8,0,0.7,0.8c-0.3,1.7-0.5,3.4-0.8,5.1c-0.1,0.3-0.1,0.3-0.4,0.3c-0.3,0-0.6,0-1,0
		C24,9.3,24,9.2,24,9c0.3-1.8,0.6-3.8,0.9-5.6c0-0.1,0.1-0.3,0.3-0.3C25.4,3.2,25.6,3.2,25.8,3.2z"/>
	<path fill="#A4A4A4" d="M25.9,2.1c-0.5,0-0.8-0.3-0.8-0.8c0-0.5,0.5-1,1.1-1c0.5,0,0.8,0.3,0.8,0.8C27,1.7,26.5,2.1,25.9,2.1z"/>
	<path fill="#A4A4A4" d="M19.2,2.1c-0.5,0-0.8-0.3-0.8-0.8c0-0.5,0.5-1,1.1-1c0.5,0,0.8,0.3,0.8,0.8C20.2,1.7,19.7,2.1,19.2,2.1z"/>
	<g>
		<path fill="#A4A4A4" d="M17.7,16.9l-1-4.4c-0.1-0.6-0.6-0.8-1.2-0.8h-4.2l-0.1,0.2C14.6,12.7,16.7,14.6,17.7,16.9z"/>
		<path fill="#A4A4A4" d="M20.7,11.8l-2.7,6.8l-0.3-1c-0.5-1.2-2-3-3.8-4.2l2.5,8.4h2.9l4.2-10H20.7z"/>
		<polygon fill="#A4A4A4" points="23.1,21.9 25.8,21.9 27.5,11.8 24.8,11.8 		"/>
		<path fill="#A4A4A4" d="M33,15.8c-1-0.5-1.6-0.8-1.6-1.2c0-0.4,0.5-0.8,1.6-0.8c0.9,0,1.6,0.2,2,0.4l0.2,0.1l0.4-2.2
			c-0.5-0.2-1.4-0.4-2.5-0.4c-2.7,0-4.6,1.4-4.6,3.3c0,1.4,1.4,2.3,2.4,2.7c1.1,0.5,1.4,0.8,1.4,1.2c0,0.7-0.8,1-1.6,1
			c-1.1,0-1.7-0.1-2.6-0.5l-0.3-0.1l-0.4,2.3c0.7,0.3,1.8,0.5,3.1,0.5c2.9,0,4.8-1.4,4.8-3.5C35.4,17.4,34.7,16.5,33,15.8z"/>
		<path fill="#A4A4A4" d="M42.9,11.8h-2.1c-0.7,0-1.2,0.2-1.4,0.8l-4.1,9.2h2.9c0,0,0.5-1.2,0.5-1.5c0.3,0,3.1,0,3.5,0
			c0.1,0.3,0.3,1.5,0.3,1.5H45L42.9,11.8z M39.4,18.2c0.2-0.5,1.1-2.9,1.1-2.9c0,0.1,0.2-0.5,0.4-1l0.2,0.9c0,0,0.5,2.4,0.6,2.9
			H39.4L39.4,18.2L39.4,18.2z"/>
	</g>
</g>
</svg>
