<?xml version="1.0" encoding="utf-8"?>
<!-- Generator: Adobe Illustrator 17.1.0, SVG Export Plug-In . SVG Version: 6.00 Build 0)  -->
<!DOCTYPE svg PUBLIC "-//W3C//DTD SVG 1.1//EN" "http://www.w3.org/Graphics/SVG/1.1/DTD/svg11.dtd">
<svg version="1.1" id="Layer_1" xmlns="http://www.w3.org/2000/svg" xmlns:xlink="http://www.w3.org/1999/xlink" x="0px" y="0px"
	 viewBox="0 0 76 60" enable-background="new 0 0 76 60" xml:space="preserve">
<g>
	<path fill="#FFFFFF" d="M50.7,0H25.3C11.4,0,0,11.3,0,25.2v9.7C0,48.7,11.4,60,25.3,60h25.3C64.6,60,76,48.7,76,34.8v-9.7
		C76,11.3,64.6,0,50.7,0z M74,34.8C74,47.6,63.5,58,50.7,58H25.3C12.5,58,2,47.6,2,34.8v-9.7C2,12.4,12.5,2,25.3,2h25.3
		C63.5,2,74,12.4,74,25.2V34.8z"/>
	<polygon fill="#FFFFFF" points="28.1,40.9 47.9,30 28.1,19.1 	"/>
</g>
</svg>
