<?xml version="1.0" encoding="utf-8"?>
<!-- Generator: Adobe Illustrator 17.1.0, SVG Export Plug-In . SVG Version: 6.00 Build 0)  -->
<!DOCTYPE svg PUBLIC "-//W3C//DTD SVG 1.1//EN" "http://www.w3.org/Graphics/SVG/1.1/DTD/svg11.dtd">
<svg version="1.1" id="Layer_1" xmlns="http://www.w3.org/2000/svg" xmlns:xlink="http://www.w3.org/1999/xlink" x="0px" y="0px"
	 viewBox="0 0 76.8 22" enable-background="new 0 0 76.8 22" xml:space="preserve">
<g>
	<path fill="#A4A4A4" d="M74.6,7.6c-0.4,0-0.6,0.1-0.8,0.5c-0.4,0.7-0.8,1.5-1.2,2.3c-0.2-0.9-0.4-1.7-0.5-2.5
		c0-0.1-0.2-0.3-0.3-0.3c-0.8,0-1.7,0-2.6,0c0.1,0.2,0.1,0.4,0.2,0.5c0.4,1.2,0.9,2.4,1.3,3.6c0.1,0.4,0.1,0.8,0.1,1.2
		c0,0.5-0.1,0.9-0.2,1.4c0.9,0,1.7,0,2.6,0c0-0.3,0.1-0.5,0.1-0.8c0.1-0.4,0.1-1,0.3-1.3c1-1.5,2.1-3,3.2-4.5c0,0,0-0.1,0-0.1
		C76.1,7.6,75.3,7.6,74.6,7.6z"/>
	<path fill="#A4A4A4" d="M33.5,7.6c-0.3,0-0.5,0.1-0.6,0.4c-0.3,0.8-0.6,1.6-0.8,2.4c-0.1,0.4-0.3,0.8-0.5,1.2c-0.2-1-0.2-2-0.4-3
		c-0.1-1.1-0.1-1.1-1.2-1.1c-1.4,0-1.4,0-2,1.3c-0.4,0.9-0.8,1.8-1.1,2.8c-0.1,0-0.1,0-0.2,0c0-1.3,0-2.7,0-4c-0.9,0-1.7,0-2.5,0
		c0.2,2.3,0.3,4.5,0.5,6.7c0.7,0,1.2,0,1.8,0c1,0,1,0,1.4-0.9c0.4-1.1,0.9-2.1,1.3-3.2c0,0,0.1,0,0.1,0c0.1,1.4,0.3,2.7,0.4,4.1
		c0.8,0,1.6,0,2.4,0c0.3,0,0.5-0.1,0.6-0.4c0.6-1.7,1.3-3.3,2-5c0.2-0.5,0.4-0.9,0.6-1.4C34.7,7.6,34.1,7.6,33.5,7.6z"/>
	<path fill="#A4A4A4" d="M50.6,8.7c-0.2-0.8-0.8-1-1.5-1.1c-1.6,0-3.2,0-4.8,0c-0.4,2.2-0.7,4.5-1.1,6.7c1.6,0,3.1,0,4.6,0
		c0.3,0,0.6-0.1,0.9-0.1c0.9-0.2,1.4-0.8,1.5-1.8c0.1-0.7-0.2-1.1-1-1.5c0,0,0-0.1-0.1-0.1c0.1,0,0.2-0.1,0.3-0.1
		C50.3,10.4,50.8,9.6,50.6,8.7z M47.3,12.8c-0.4,0.2-0.8,0.2-1.4,0.3c0.1-0.6,0.1-1,0.2-1.4c0.4,0,0.7-0.1,1,0
		c0.2,0,0.5,0.3,0.5,0.5C47.6,12.3,47.5,12.7,47.3,12.8z M47.3,10.1c-0.3,0-0.6,0-1,0.1c0.1-0.4,0.1-0.8,0.2-1.1
		c0-0.1,0.2-0.2,0.3-0.2c0.1,0,0.3,0,0.4,0c0.4,0,0.7,0.1,0.8,0.5C48,9.9,47.7,10.1,47.3,10.1z"/>
	<path fill="#A4A4A4" d="M66.3,7.6c-0.8,0-1.7,0-2.5,0c-0.4,0-0.7,0.1-0.9,0.5c-0.7,1.5-1.5,3-2.3,4.5c-0.3,0.6-0.6,1.1-0.9,1.7
		c0.1,0,0.1,0.1,0.2,0.1c0.7,0,1.3,0,2,0c0.3,0,0.5-0.1,0.6-0.4c0.2-0.9,0.8-1.2,1.7-1.1c0,0,0,0,0.1,0c0.9,0,0.9,0,1,0.9
		c0,0.2,0.1,0.4,0.1,0.6c0.9,0,1.8,0,2.7,0c-0.4-2.1-0.9-4.2-1.2-6.3C66.8,7.7,66.6,7.6,66.3,7.6z M63.6,11.2c0.3-0.7,0.7-1.3,1-2
		c0,0,0.1,0,0.1,0c0.1,0.6,0.2,1.3,0.3,2C64.6,11.2,64.1,11.2,63.6,11.2z"/>
	<path fill="#A4A4A4" d="M57.8,7.7c-1.6-0.1-3.2-0.1-4.7-0.1c-0.1,0-0.2,0-0.3,0.1c-0.4,2.2-0.7,4.4-1.1,6.7c0.9,0,1.8,0,2.6,0
		c0.1-0.6,0.2-1.2,0.3-1.9c0.6,0,1.2,0,1.8,0c1.7,0,2.7-0.9,3-2.5C59.6,8.7,59,7.8,57.8,7.7z M56.3,10.6c-0.4,0.2-0.9,0.2-1.5,0.3
		c0.1-0.7,0.2-1.2,0.3-1.8c0.4,0,0.7,0,1,0.1c0.2,0.1,0.6,0.3,0.6,0.5C56.7,10.1,56.5,10.5,56.3,10.6z"/>
	<path fill="#A4A4A4" d="M36.9,7.6c-0.1,0-0.3,0.3-0.3,0.4c-0.2,1.2-0.4,2.5-0.6,3.8c-0.1,0.8-0.3,1.7-0.4,2.6c2,0,4,0,5.9,0
		c0.1-0.5,0.2-1,0.3-1.6c-1.1,0-2.2,0-3.3,0c0.1-1,0-0.9,0.9-0.9c0.7,0,1.3,0,2,0c0.1,0,0.4-0.2,0.4-0.3c0.1-0.4,0.1-0.9,0.2-1.3
		c-1.1,0-2.1,0-3.2,0c0.1-0.3,0.1-0.6,0.2-0.9c1.1,0,2.2,0,3.3,0c0.1-0.6,0.2-1.1,0.3-1.7C40.6,7.6,38.7,7.6,36.9,7.6z"/>
	<path fill="#A4A4A4" d="M19,12.4l2.7-1.3L19,9.8l3-3.4l-4.4-0.1l1-2.9l-2.9,1.1L15.4,0l-3.2,3.1l-1.3-2.8L9.7,2.9L6.4,0L6.3,4.4
		l-2.9-1l1.1,2.8L0,6.5l3.1,3.2l-2.8,1.4L3,12.3L0,15.5l4.4,0.1l-1,2.9l2.9-1.1L6.6,22l3.2-3.1l1.3,2.8l1.2-2.6l3.3,3l0.1-4.5l2.9,1
		l-1.1-2.8l4.5-0.2L19,12.4z M17,8l0.3-0.7l2.6,0.1l-1.8,2l-0.8-0.3L15.5,10l-0.6,0c-0.1-0.3-0.2-0.5-0.3-0.7L15,8.7L17,8z M13,4.7
		L12.6,4l1.9-1.8l0.1,2.8L14,5.2l-0.6,1.7l-0.5,0.5c-0.3-0.2-0.5-0.3-0.8-0.4l0-0.4L13,4.7z M7,13.2l-2,0.7l-0.3,0.7l-2.6-0.1
		l1.7-1.9L4.7,13l2-1c0.1,0.4,0.2,0.7,0.4,1L7,13.2z M6.8,9.8l-0.3,0L4.7,8.9L4,9.3L2.2,7.3l2.7-0.1L5.1,8l1.9,0.7l0.1,0.2
		C7,9.1,6.9,9.4,6.8,9.8z M7.3,2.1l1.9,1.7L8.9,4.8l1,2l0,0.1C9.6,7,9.2,7.1,8.9,7.2L8.7,7L8,5L7.3,4.8L7.3,2.1z M9,17.3L9.4,18
		l-1.9,1.8l-0.1-2.8L8,16.8l0.6-1.7l0.4-0.3c0.3,0.2,0.6,0.3,1,0.4l0,0.3L9,17.3z M10.8,14.2c-1.8,0-3.2-1.4-3.2-3.2S9,7.8,10.8,7.8
		S14,9.2,14,11S12.6,14.2,10.8,14.2z M14.6,19.9l-2-1.8l0.4-0.9l-1-2l0-0.2c0.3-0.1,0.5-0.2,0.8-0.3l0.4,0.4l0.7,2l0.7,0.3
		L14.6,19.9z M17.2,14.8L16.8,14l-2-0.7l-0.4-0.4c0.1-0.2,0.2-0.4,0.3-0.7l0.5,0l2.1,1l0.8-0.4l1.8,1.9L17.2,14.8z"/>
</g>
</svg>
