<?xml version="1.0" encoding="utf-8"?>
<!-- Generator: Adobe Illustrator 17.1.0, SVG Export Plug-In . SVG Version: 6.00 Build 0)  -->
<!DOCTYPE svg PUBLIC "-//W3C//DTD SVG 1.1//EN" "http://www.w3.org/Graphics/SVG/1.1/DTD/svg11.dtd">
<svg version="1.1" id="Layer_1" xmlns="http://www.w3.org/2000/svg" xmlns:xlink="http://www.w3.org/1999/xlink" x="0px" y="0px"
	 viewBox="0 0 34 34" enable-background="new 0 0 34 34" xml:space="preserve">
<g>
	<path fill="#FF261A" d="M15.4,18.9v3.9c-0.2,0.3-0.4,0.4-0.6,0.4c-0.1,0-0.2-0.1-0.2-0.2c0,0,0-0.1,0-0.4v-3.7h-0.9v4
		c0,0.4,0,0.6,0.1,0.8c0.1,0.3,0.3,0.4,0.6,0.4c0.3,0,0.7-0.2,1.1-0.6V24h0.9v-5.1H15.4z"/>
	<polygon fill="#FF261A" points="13.7,17.2 10.5,17.2 10.5,18.1 11.6,18.1 11.6,24 12.6,24 12.6,24 12.6,18.1 13.7,18.1 	"/>
	<path fill="#FF261A" d="M18.9,18.8c-0.3,0-0.7,0.2-1,0.6v-2.2h-0.9V24H18v-0.5c0.3,0.4,0.6,0.6,1,0.6c0.4,0,0.6-0.2,0.7-0.6
		c0.1-0.2,0.1-0.6,0.1-1v-2c0-0.5,0-0.8-0.1-1C19.6,19,19.3,18.8,18.9,18.8z M18.9,22.5c0,0.5-0.1,0.7-0.4,0.7
		c-0.2,0-0.3-0.1-0.5-0.2v-3.1c0.2-0.1,0.3-0.2,0.5-0.2c0.3,0,0.4,0.2,0.4,0.7V22.5z"/>
	<path fill="#FF261A" d="M16.9,14.1c0.3,0,0.4-0.2,0.4-0.7v-2.2c0-0.5-0.1-0.7-0.4-0.7c-0.3,0-0.4,0.2-0.4,0.7v2.2
		C16.4,13.9,16.6,14.1,16.9,14.1z"/>
	<path fill="#FF261A" d="M21.8,18.8c-0.5,0-0.8,0.2-1.1,0.5c-0.2,0.3-0.3,0.7-0.3,1.2v1.8c0,0.5,0.1,0.9,0.3,1.2
		c0.3,0.3,0.6,0.5,1.1,0.5c0.5,0,0.9-0.2,1.1-0.6c0.1-0.2,0.2-0.3,0.2-0.5c0-0.1,0-0.3,0-0.6v-0.1h-0.9c0,0.4,0,0.6,0,0.6
		c-0.1,0.2-0.2,0.4-0.4,0.4c-0.3,0-0.5-0.2-0.5-0.7v-0.9h1.8h0v-1.1c0-0.5-0.1-0.9-0.3-1.2C22.7,19,22.3,18.8,21.8,18.8z M22.3,20.8
		h-0.9v-0.5c0-0.5,0.2-0.7,0.5-0.7c0.3,0,0.5,0.2,0.5,0.7V20.8z"/>
	<path fill="#FF261A" d="M0,0v34h34V0H0z M19,9.8h0.9v3.8c0,0.2,0,0.3,0,0.4c0,0.1,0.1,0.2,0.2,0.2c0.2,0,0.4-0.1,0.6-0.4V9.8h0.9
		v5.1h-0.9v-0.6c-0.4,0.4-0.7,0.6-1.1,0.6c-0.3,0-0.5-0.1-0.6-0.4C19,14.4,19,14.2,19,13.8V9.8z M16.9,9.7c0.5,0,0.8,0.2,1.1,0.5
		c0.2,0.3,0.3,0.7,0.3,1.2v1.8c0,0.5-0.1,0.9-0.3,1.2c-0.3,0.3-0.6,0.5-1.1,0.5c-0.5,0-0.8-0.2-1.1-0.5c-0.2-0.3-0.3-0.7-0.3-1.2
		v-1.8c0-0.5,0.1-0.9,0.3-1.2C16.1,9.9,16.4,9.7,16.9,9.7z M13.2,8l0.7,2.7L14.7,8h1l-1.2,4.1v2.8h-1v-2.8c-0.1-0.5-0.3-1.2-0.6-2.2
		c-0.2-0.6-0.4-1.3-0.7-1.9H13.2z M24.5,21.3c0,1.2-0.2,2.4-0.2,2.4s-0.1,1-0.6,1.5c-0.6,0.6-1.2,0.6-1.5,0.6
		C20.1,26,16.9,26,16.9,26s-3.9,0-5.2-0.2c-0.3-0.1-1.1,0-1.7-0.6c-0.5-0.5-0.6-1.5-0.6-1.5s-0.2-1.2-0.2-2.4v-1.1
		c0-1.2,0.2-2.4,0.2-2.4s0.1-1,0.6-1.5c0.6-0.6,1.2-0.6,1.5-0.6c2.1-0.2,5.3-0.2,5.3-0.2h0c0,0,3.2,0,5.3,0.2c0.3,0,0.9,0,1.5,0.6
		c0.5,0.5,0.6,1.5,0.6,1.5s0.2,1.2,0.2,2.4V21.3z"/>
</g>
</svg>
