<?xml version="1.0" encoding="utf-8"?><svg xmlns="http://www.w3.org/2000/svg" xmlns:xlink="http://www.w3.org/1999/xlink"><symbol id="basket" viewBox="0 0 24 24" xmlns="http://www.w3.org/2000/svg"><style>.aast0{fill:#00519e}</style><path class="aast0" d="M23 6.6h-4.2C18.4 5 17.7 3.2 16.5 2c-1.2-1.3-2.8-2-4.7-2-1.7 0-3.2.6-4.4 1.8-1.2 1.3-1.8 3.1-2.2 4.8H1L0 24h24L23 6.6zM8.9 3.2c.8-.8 1.7-1.2 2.9-1.2 1.3 0 2.4.4 3.2 1.3.8.9 1.3 2.1 1.7 3.3H7.2c.4-1.2.9-2.5 1.7-3.4zM2.1 22l.8-13.4h1.9c-.2 1.8-.1 3.3-.1 3.4 0 .5.5.9 1 .9.6 0 1-.4 1-1v-.1s-.1-1.5.1-3.2H17c.2 1.8.1 3.3.1 3.3v.1c0 .6.5 1 1 1s1-.4 1-.9c0-.1.1-1.6-.1-3.4h2l.9 13.3H2.1z"/></symbol><symbol id="basket-gray" viewBox="0 0 24 24" xmlns="http://www.w3.org/2000/svg"><style>.abst0{fill:#a4a4a4}</style><path class="abst0" d="M23 6.6h-4.2C18.4 5 17.7 3.2 16.5 2c-1.2-1.3-2.8-2-4.7-2-1.7 0-3.2.6-4.4 1.8-1.2 1.3-1.8 3.1-2.2 4.8H1L0 24h24L23 6.6zM8.9 3.2c.8-.8 1.7-1.2 2.9-1.2 1.3 0 2.4.4 3.2 1.3.8.9 1.3 2.1 1.7 3.3H7.2c.4-1.2.9-2.5 1.7-3.4zM2.1 22l.8-13.4h1.9c-.2 1.8-.1 3.3-.1 3.4 0 .5.5.9 1 .9.6 0 1-.4 1-1v-.1s-.1-1.5.1-3.2H17c.2 1.8.1 3.3.1 3.3v.1c0 .6.5 1 1 1s1-.4 1-.9c0-.1.1-1.6-.1-3.4h2l.9 13.3H2.1z"/></symbol><symbol id="basket-white" viewBox="0 0 24 24" xmlns="http://www.w3.org/2000/svg"><style>.acst0{fill:#fff}</style><path class="acst0" d="M23 6.6h-4.2C18.4 5 17.7 3.2 16.5 2c-1.2-1.3-2.8-2-4.7-2-1.7 0-3.2.6-4.4 1.8-1.2 1.3-1.8 3.1-2.2 4.8H1L0 24h24L23 6.6zM8.9 3.2c.8-.8 1.7-1.2 2.9-1.2 1.3 0 2.4.4 3.2 1.3.8.9 1.3 2.1 1.7 3.3H7.2c.4-1.2.9-2.5 1.7-3.4zM2.1 22l.8-13.4h1.9c-.2 1.8-.1 3.3-.1 3.4 0 .5.5.9 1 .9.6 0 1-.4 1-1v-.1s-.1-1.5.1-3.2H17c.2 1.8.1 3.3.1 3.3v.1c0 .6.5 1 1 1s1-.4 1-.9c0-.1.1-1.6-.1-3.4h2l.9 13.3H2.1z"/></symbol><symbol viewBox="0 0 33.3 22" id="erip" xmlns="http://www.w3.org/2000/svg"><g fill="#A4A4A4"><path d="M4.1 14.5c-.5.1-.9.3-1.2.7v-.6c0-.1 0-.2-.1-.1H1.4c-.1 0-.1 0-.2.1L0 21.9c0 .1 0 .1.1.1h1.6c.1 0 .1 0 .1-.1l.3-1.8c.1-.3 0-.3.3-.2.8.2 1.6.1 2.3-.4 1.2-.8 1.6-2.5 1.3-3.6-.1-1.1-.9-1.6-1.9-1.4zm-.4 3.8c-.3.4-.8.4-1.1.2-.1 0-.1-.1-.1-.2.1-.4.1-.9.2-1.3.1-.3.2-.5.4-.7.3-.3.6-.4.8-.3.2.1.4.4.3.8.1.5-.1 1-.5 1.5zm8.4-3.6c-.7-.2-1.4-.3-2.1-.2-.8 0-1.6.3-2.2.8-1 .8-1.4 2-1.3 3.2.2 1.6 1.8 1.8 2.7 1.1l.6-.6v.7c0 .1 0 .1.1.1h1.4c.1 0 .1 0 .1-.1 0-.5 0-1.1.1-1.6.2-1.1.4-2.1.6-3.2.1-.1.1-.2 0-.2zm-2.4 3.1c-.1.2-.1.3-.3.5-.2.2-.4.3-.7.3-.2-.1-.3-.3-.4-.6v-.2c0-.6.3-1.1.7-1.6.3-.2.6-.3.9-.3.1 0 .1 0 .1.1 0 .6 0 1.2-.3 1.8zm16.8-3.2c-1-.4-2-.2-2.8.4-1 .8-1.4 1.8-1.2 3 .1 1 .6 1.6 1.5 1.8.4.1.9.1 1.3.1.5 0 1-.1 1.4-.3.1-.1.2-.1.2-.3 0-.4-.1-.7-.1-1.1-.4.2-.8.3-1.1.3-.4 0-.8 0-1.1-.1-.2-.1-.3-.2-.4-.4 0-.1 0-.1.1-.1h.4c.6 0 1.3-.1 1.9-.3.7-.3 1-.8.9-1.5 0-.7-.3-1.2-1-1.5zm-.9 1.9c-.3.1-.6.1-.8.1h-.1c-.3 0-.3 0-.2-.3.2-.4.6-.6 1-.5.2 0 .3.1.4.3 0 .2-.1.3-.3.4zm-3.5-1.9h-1.5c-.1 0-.1 0-.2.1-.1.6-.2 1.1-.3 1.7 0 .2-.2.3-.4.4-.5.1-1 0-.9-.8.1-.4.2-.9.3-1.3 0-.1 0-.2-.1-.2h-1.5c-.1 0-.2 0-.2.1 0 .2-.1.4-.1.6-.1.5-.2 1-.2 1.5 0 .7.4 1.2 1 1.3.6.1 1.2.1 1.8-.1v.1c-.1.5-.2 1.1-.4 1.6 0 .1 0 .1.1.1h1.6c.1 0 .1 0 .2-.1.1-.5.2-1 .3-1.6.2-1.1.4-2.2.7-3.4h-.2zm-7-.1c-1.7.3-2.8 1.6-2.8 3.3 0 .8.3 1.4 1 1.8.9.5 1.8.4 2.7.1.1 0 .1-.1.1-.1v-1.2c0-.1 0-.1-.1-.1-.3.1-.6.2-.9.2-.4 0-.8-.3-.9-.6-.2-.8.4-1.8 1.2-1.9.3 0 .6-.1.8 0 .1 0 .2 0 .2-.1.1-.4.2-.7.3-1.1 0-.1 0-.2-.1-.2-.4-.2-1-.2-1.5-.1zm17.5 0h-4.4c-.1 0-.2 0-.2.2-.1.3-.1.7-.2 1 0 .1 0 .2.1.2h1.2v.1c-.2 1.3-.5 2.5-.7 3.8 0 .1 0 .2.1.2h1.4c.2 0 .2-.1.3-.2.2-1.2.5-2.4.7-3.6 0-.1.1-.1.2-.1h1.3c.1 0 .2 0 .2-.1.1-.3.1-.7.2-1-.1-.4-.1-.5-.2-.5zM4.7 10.2H2l-.5 2.7h3.7s-.5-1.2-.5-2.7zm21.6 0s0 1.5-.5 2.7h6.9l.5-2.7h-6.9zM14.5 5.7l-.2-1.3-1.1.2.4 1.2zm-1.7.4L12.3 5l-.7.4.5 1.1zm-1.3.8l-.7-.8-.5.5.7.8zm-1 1.1l-.8-.5-.2.4.7.5zm-.6 1.1l-.7-.2-.1.3.7.2z"/><path d="M24.8 12.9c.3-1 .5-2 .5-3.1 0-5.1-3.9-9.3-8.9-9.8h-.9c-5.4 0-9.8 4.4-9.8 9.8 0 1.1.2 2.1.5 3.1h18.6zm-8.4-4.8l-.7-.2.2-1 .7.3-.2.9zm.3.1l.4-.8.6.4-.4.8-.6-.4zm1.4 1.1l.5-.4.2.4-.5.4-.2-.4zm.9 1.4l-.4.3v-.4l.4-.2v.3zm-.4-.4l-.1-.4.5-.2.1.4-.5.2zm4-.3l-.8.4v-.7l.8-.3v.6zm-.1-1.4l-.8.5-.3-.7.9-.6.2.8zm-.4-1.4l-.8.7-.5-.7 1-.7.3.7zm-.9-1.5l-.9 1-.7-.6.9-1.2.7.8zm-2.4-2.1l1.2.8-.7 1.4-1.2-.6.7-1.6zm-.4 4.9l-.5.5-.4-.4.5-.5.4.4zm-1.8-5.7l1.3.4-.4 1.7-1.2-.3.3-1.8zM15.5 1h.8l-1.6 10.9H6.9c-.2-.7-.3-1.4-.3-2.1C6.7 5 10.7 1 15.5 1z"/></g></symbol><symbol viewBox="17 19.5 20 15" id="exit-2" xmlns="http://www.w3.org/2000/svg"><path d="M20.5 19.5l7.6 3.3v11.7l-7.6-3.3z"/><path d="M33.5 32.5h-4v-2.4h1.8v-8.3h-1.8l-4.6-2.3h8.6z"/></symbol><symbol viewBox="0 0 34 34" id="facebook" xmlns="http://www.w3.org/2000/svg"><path fill="#23599C" d="M0 0v34h34V0H0zm21.9 11.1c0 .2-.2.4-.4.4h-1.6c-1.1 0-1.3.4-1.3 1.3v1.7h2.7c.1 0 .2 0 .3.1s.1.2.1.3v3c0 .2-.2.4-.4.4h-2.7v7.5c0 .2-.2.4-.4.4h-3.1c-.2 0-.4-.2-.4-.4v-7.5h-2.3c-.2 0-.4-.2-.4-.4v-3c0-.2.2-.4.4-.4h2.3v-2c0-2.7 1.7-4.4 4.3-4.4h2.3c.2 0 .4.2.4.4v2.6z"/></symbol><symbol viewBox="0 0 34 34" id="google" xmlns="http://www.w3.org/2000/svg"><g fill="#F53F2E"><path d="M15.2 11.6c-.5-1.7-1.3-2.2-2.5-2.2-.1 0-.3 0-.4.1-.5.1-.9.6-1.2 1.2-.2.7-.3 1.3 0 2.1.4 1.4 1.4 2.4 2.4 2.4.1 0 .3 0 .4-.1 1.1-.2 1.8-1.9 1.3-3.5zm-1.7 7.7h-.3c-.9.1-1.7.4-2.3.9-.6.5-.9 1.2-.8 1.9.1 1.4 1.6 2.2 3.4 2.1 1.8-.1 3-1.2 2.9-2.6-.1-1.3-1.2-2.3-2.9-2.3z"/><path d="M0 0v34h34V0H0zm15.9 25.2c-1.2.6-2.5.6-3 .6H12.6c-.8 0-4.7-.2-4.7-3.7s4.2-3.7 5.5-3.7c-.7-1-.6-2-.6-2h-.3c-.5 0-1.4-.1-2.2-.6-1-.6-1.5-1.7-1.5-3.2 0-4.2 4.6-4.4 4.7-4.4h4.6v.1c0 .5-.9.6-1.6.7 0 0-.5 0-.6.1 1.2.6 1.4 1.6 1.4 3.1 0 1.7-.7 2.5-1.3 3.2-.4.4-.8.7-.8 1.1 0 .4.5.8 1 1.3.9.8 2.1 1.8 2.1 3.6-.1 1.7-.8 3-2.4 3.8zM26 17h-3v3h-1.9v-3h-3v-1.9h3v-3H23v3h3V17z"/></g></symbol><symbol viewBox="0 0 15 15" id="info" xmlns="http://www.w3.org/2000/svg"><g fill="#00519E"><path d="M7.5 0C3.4 0 0 3.4 0 7.5S3.4 15 7.5 15 15 11.6 15 7.5 11.6 0 7.5 0zm0 13C4.5 13 2 10.5 2 7.5S4.5 2 7.5 2 13 4.5 13 7.5 10.5 13 7.5 13z"/><path d="M7.5 9.1c-.5 0-.9.4-.9.9s.4.8.9.8.9-.4.9-.9c0-.4-.4-.8-.9-.8zm.1-4.9c-1.2 0-2.1.6-2.3 2l1.4.2c0-.4.3-.8.8-.8.4 0 .7.3.7.6s-.2.5-.4.6l-.3.2c-.5.4-.7.7-.7 1.4v.3h1.4v-.2c0-.4.1-.5.5-.8.6-.5 1-.8 1-1.6 0-1.4-1.1-1.9-2.1-1.9z"/></g></symbol><symbol viewBox="0 0 34 34" id="instagram" xmlns="http://www.w3.org/2000/svg"><g fill="#93594F"><circle cx="22.6" cy="11.6" r="1.1"/><path d="M0 0v34h34V0H0zm25.8 22.7c0 2-1.7 3.7-3.7 3.7H11.5c-2 0-3.7-1.7-3.7-3.7V12.2c0-2 1.7-3.7 3.7-3.7h10.6c2 0 3.7 1.7 3.7 3.7v10.5z"/><path d="M16.8 12.5c-3 0-5.5 2.5-5.5 5.5s2.5 5.5 5.5 5.5 5.5-2.5 5.5-5.5-2.5-5.5-5.5-5.5zm0 9.2c-2.1 0-3.8-1.7-3.8-3.8 0-2.1 1.7-3.8 3.8-3.8 2.1 0 3.8 1.7 3.8 3.8 0 2.1-1.7 3.8-3.8 3.8z"/></g></symbol><symbol viewBox="86.5 28 27.3 24" id="like" xmlns="http://www.w3.org/2000/svg"><path fill="#00519E" d="M100.1 52l-.6-.4s-3.1-2.2-6-4.5c-3.3-2.6-7-6.2-7-11.2 0-4.4 3.5-7.9 7.8-7.9 2.2 0 4.2.9 5.8 2.6 1.6-1.7 3.6-2.6 5.8-2.6 4.3 0 7.9 3.5 7.9 7.9 0 5-3.8 8.6-7 11.2-2.9 2.3-6 4.5-6 4.5l-.7.4zm-5.8-22c-3.2 0-5.9 2.6-5.9 5.9 0 4.2 3.4 7.3 6.3 9.6 2.2 1.7 4.4 3.3 5.4 4.1 1-.7 3.2-2.4 5.4-4.1 2.9-2.3 6.3-5.4 6.3-9.6 0-3.3-2.7-5.9-5.9-5.9-2.4 0-4.1 1.5-5 2.8l-.8 1-.8-1.1c-1.4-1.8-3-2.7-5-2.7z"/></symbol><symbol viewBox="-33.3 0 568.8 500" id="like-active" xmlns="http://www.w3.org/2000/svg"><path fill="#00519E" d="M370.8 0C325 0 283.3 18.8 250 54.2 216.7 18.8 175 0 129.2 0 39.6 0-33.3 72.9-33.3 164.6c0 104.2 77.1 179.2 145.8 233.3 60.4 47.9 125 93.8 125 93.8L250 500l14.6-8.3s64.6-45.8 125-93.8c66.7-54.2 145.8-129.2 145.8-233.3C535.4 72.9 460.4 0 370.8 0z"/></symbol><symbol viewBox="0 0 37.1 22" id="mastercard" xmlns="http://www.w3.org/2000/svg"><g fill="#A4A4A4"><path d="M17.7 10.3c-.4 0-.8.2-.9.8h1.4c0-.4-.1-.8-.5-.8zm-9.6 1.6c-.3.3-.5.7-.1.8.3.1.9-.1 1-.5l.1-.4c-.2 0-.6-.2-1 .1zm24.8-.5c-.1.5.2 1 .5 1 .4 0 .7-.3.9-.8.1-.3.1-.8-.1-1-.3-.4-1.1-.1-1.3.8zm-6.1.5c-.3.3-.5.7-.1.8.3.1.9-.1 1-.5l.1-.4c-.2 0-.6-.2-1 .1z"/><path d="M26.1 0c-2.6 0-5 .9-6.9 2.5 1.4 1.4 2.5 3.2 3.2 5.1h-.9c-.5-1.8-1.6-3.3-2.9-4.5-1.3 1.2-2.3 2.8-2.9 4.5h-.9c.6-2 1.6-3.7 3.1-5.1C16 1 13.6 0 11 0 4.9 0 0 4.9 0 11s4.9 11 11 11c2.6 0 5-1 6.9-2.5-1.4-1.4-2.5-3.2-3.1-5.1h.9c.5 1.7 1.6 3.3 2.9 4.5 1.3-1.2 2.3-2.8 2.9-4.5h.9c-.6 2-1.7 3.7-3.2 5.1 1.9 1.6 4.3 2.5 6.9 2.5 6 0 11-5 11-11s-4.9-11-11-11zM4.9 13.6l.6-3.4L4 13.6H3L2.8 10l-.7 3.6H1l1-4.9h1.8l.2 3 1.4-3h1.8l-.9 4.9H4.9zm4 0l-.1-.2c-.2.1-.3.2-.9.3-.6 0-1.3-.4-1.2-1.2.3-1.8 2.2-1.4 2.6-1.5.1-.6-.3-.6-.7-.6s-1.1.1-1.4.1l.1-.9c.8-.1 1.1-.1 1.4-.1 1.9 0 1.6 1.3 1.6 1.9l-.3 2.2H8.9zm4.4-1.2c-.2 1.2-1.5 1.2-1.8 1.2-.4 0-.8 0-1.3-.1l.1-.8c.6.2 1.3.1 1.4.1.3 0 .4-.5.1-.6-.2-.1-.5-.3-.9-.5-.3-.1-.6-.4-.4-1.2.2-1 1.5-1 1.7-1 .1 0 .5-.1 1.1.1l-.3.8c-.3-.1-.8-.1-1.1-.1-.4.1-.3.5 0 .6.2.1.5.3.8.4.5.2.8.5.6 1.1zm2 1c-.3.1-.5.2-.8.2-.3 0-1.1-.1-.9-1.2l.8-3.9h1.1l-.2 1.1h.6l-.2.9h-.5l-.3 1.7c-.1.3 0 .6.6.5l-.2.7zm2.4-.8c.4 0 1.1-.1 1.2-.1l-.1.8c-.3.1-1 .2-1.4.2-1.9 0-1.9-1.8-1.9-2.1.1-.3.3-2.1 2.1-2.1 1.9 0 1.6 1.6 1.5 2.3h-2.4c-.1 1.1.6 1 1 1zm2.9-.8l-.3 1.9h-1.1l.8-4.1h1v.4c.1-.2.5-.4 1-.4l-.3 1c-.2 0-.7-.1-1.1 1.2zm4.2.5l.3 1c-.3.1-.8.3-1.4.3-1.2 0-2.4-1-1.9-3.1.4-1.5 1.7-2.1 2.5-2.1.9 0 1.2.3 1.5.6l-.8.8c-.2-.1-.3-.1-.8-.1-.3 0-1.2.3-1.4 1.4.1 1 .9 1.6 2 1.2zm2.8 1.3l-.1-.2c-.2.1-.3.2-.9.3-.5 0-1.3-.4-1.2-1.2.3-1.7 2.3-1.4 2.6-1.4.1-.6-.3-.6-.7-.6-.4 0-1.1.1-1.4.1l.1-.9c.8-.1 1.1-.1 1.4-.1 1.9 0 1.6 1.3 1.6 1.9l-.4 2.2c.1-.1-1-.1-1-.1zm2.9-1.9l-.3 1.9h-1.1l.8-4.1h1l.1.4c.2-.2.5-.4 1-.4l-.3 1.1c-.4 0-.8-.1-1.2 1.1zm3.5 1.9l-.1-.3c-.2.1-.6.3-1 .3-.8 0-1.5-1.1-1.2-2.3.5-1.9 1.5-1.7 2.1-1.7.5 0 .6.3.9.5l.3-1.6h1.2l-1 5.2H34z"/></g></symbol><symbol viewBox="0 0 61.9 22" id="mastercard_sc" xmlns="http://www.w3.org/2000/svg"><g fill="#A4A4A4"><path d="M41.7 21.9c-.1-.1-.3-.1-.5-.2-.3-.1-.6-.3-.8-.5-.3-.3-.6-.8-.7-1.2-.2-.6-.3-1.2-.2-1.8 0-.7.1-1.4.4-2.1.1-.4.4-.8.7-1.2.2-.3.5-.5.8-.7.8-.4 1.5-.6 2.3-.3.6.2 1.1.6 1.4 1.1.3.4.4.9.5 1.4.1.8.1 1.6-.1 2.4-.1.6-.3 1.1-.6 1.6s-.6.8-1 1.1c-.3.2-.7.3-1.1.4-.1 0-.1 0-.1.1-.2-.1-.6-.1-1-.1zm2.2-4.4c0-.6-.1-1-.3-1.4-.2-.3-.8-.4-1.1-.2-.4.2-.6.6-.8 1-.1.3-.2.8-.2 1.2s0 .8.1 1.2c.1.3.2.5.4.7.3.2.8.2 1.1 0 .3-.3.6-.6.6-1 .1-.6.2-1.1.2-1.5zM0 21.3c.1-.3.2-.6.2-.8.1-.3.1-.6.2-1 0-.1.1 0 .1 0 .3.2.7.3 1 .4.5.1.9.1 1.3 0 .7-.3.8-.7.8-1.4-.1-.2-.2-.4-.4-.6-.3-.3-.7-.4-1-.6-.3-.2-.6-.4-.8-.7-.4-.5-.4-1.2-.4-1.7s.1-1 .3-1.4c.1-.3.3-.7.6-.9.2-.2.5-.3.8-.5.4-.1.9-.2 1.3-.2.6 0 1.1.1 1.6.2.1.1.3.1.4.1.1 0 .1.1.1.1-.1.6-.3 1-.3 1.6-.1.3 0 .3-.3.1-.6-.3-1.2-.4-1.9-.3-.8.1-.8.9-.6 1.4l.3.3c.3.2.6.3.8.5.6.3 1 .8 1.2 1.4.2.7.2 1.4.1 2.1-.1.3-.1.7-.3 1-.2.3-.4.6-.8.9s-.8.4-1.2.5c-.7.2-1.4.2-2.1 0-.3-.1-.7-.2-1-.3v-.2zM40.1 0c.3.1.6.1.8.2.3.1.5.1.8.3.1 0 .1.1.1.2-.1.6-.2 1.2-.3 1.9 0 .1-.1.1-.1.1-.3-.2-.7-.3-1-.4-.6-.1-1.2-.1-1.8.3-.3.2-.6.5-.7.8-.6 1-.6 2-.6 3 .1.4.2.8.4 1 .4.6 1 .7 1.7.6.3-.1.7-.1 1-.3.1-.1.2-.1.3-.1-.1.5-.1.9-.2 1.3-.1.2-.1.4-.1.6 0 .1-.1.1-.1.2-1 .3-1.9.4-2.8.1-.6-.2-1-.6-1.4-1-.2-.3-.4-.6-.5-1-.1-.4-.3-.8-.3-1.2V5.1c0-.3.1-.6.1-.9.1-.5.2-1 .5-1.4.3-.8.8-1.4 1.5-1.9.3-.2.6-.3.9-.5.3-.1.6-.2.9-.2.1 0 .1 0 .1-.1.2-.1.5-.1.8-.1zm21.7 21.5c-.3 0-.3 0-.3-.3v-1c-.1.2-.1.4-.1.6 0 .2-.1.3-.1.6 0 .1-.1.1-.1.1-.1 0-.1 0-.1-.1-.1-.3-.1-.6-.1-.8 0-.1 0-.1-.1-.2-.1.1 0 .2 0 .3v.7c0 .1-.1.2-.2.2s-.1 0-.1-.1v-1.4c0-.1 0-.1.1-.1.3 0 .3 0 .4.3.1.3.1.6.2.9.1-.2.1-.3.1-.6.1-.2.1-.4.1-.6 0-.1.1-.1.1-.1h.3c-.1.6-.1 1.1-.1 1.6zM4.8 6c.1-.1.1-.3.2-.4.1-.4.3-.8.3-1.2.1-.5.3-1 .5-1.4.1-.3.2-.7.3-.9.1-.6.3-1 .5-1.6.1-.1.1-.2.3-.2h2.7c.1 0 .1.1.1.1-.2.7-.3 1.4-.4 2.1-.1.4-.1.7-.2 1.2-.1.7-.2 1.5-.3 2.4-.2.8-.3 1.6-.5 2.5 0 .3-.1.7-.2 1.1 0 .1-.1.1-.1.1H6.3c-.1 0-.1-.1-.1-.1.1-.7.2-1.4.3-2 .1-.8.3-1.7.4-2.5.1-.9.2-1.6.3-2.4v-.1c-.1.1-.2.4-.2.6-.2.6-.3 1-.6 1.6-.1.3-.2.6-.3 1-.2.4-.3.9-.5 1.3-.1.3-.2.7-.4.9-.2.5-.3 1.1-.4 1.6 0 .1-.1.1-.2.1h-1c-.1 0-.1 0-.1-.1V8.6c0-1.3-.1-2.6-.1-3.9V2.9c0-.1 0-.1-.1-.1-.1.2-.2.5-.2.8-.1.5-.1 1-.2 1.4-.1.8-.3 1.6-.4 2.4-.2.7-.3 1.6-.4 2.3 0 .1-.1.1-.1.1H.4c-.1 0-.1-.1-.1-.1 0-.3.1-.6.1-.9.1-.6.2-1.1.3-1.7 0-.3.1-.6.1-1 .2-.9.4-1.7.5-2.6.1-.8.3-1.6.4-2.5.1-.2.1-.5.1-.7 0-.1 0-.1.1-.1h2.6c.1 0 .1.1.1.1v5.5c.2.1.2.1.2.2zm51.7-3.1c.1-.3.1-.6.1-1 .1-.5.1-1 .2-1.4 0-.1 0-.3.1-.3h1.7c.1 0 .1.1.1.1-.1.8-.3 1.7-.4 2.5-.1.7-.2 1.4-.3 2-.1.6-.2 1.1-.3 1.7-.1.4-.1.8-.2 1.2-.1.6-.2 1.2-.3 1.9 0 .1-.1.1-.1.1h-1.6c-.1 0-.1 0-.1-.1.1-.2.1-.3.1-.6-.2 0-.3.2-.5.3-.3.3-.7.3-1 .4-.3.1-.7 0-1-.1-.4-.1-.7-.4-1-.8-.4-.6-.6-1.4-.6-2.1 0-.7.1-1.4.3-2.1.1-.4.3-.8.5-1.2.1-.3.3-.5.5-.7.5-.6 1.1-1 1.9-1 .3 0 .8.1 1 .3l.9.9zM56 5.4c0-.2 0-.4-.1-.6-.1-.3-.1-.6-.5-.8-.6-.3-1.1-.1-1.4.3-.2.3-.3.6-.4.9-.2.6-.2 1.2-.1 1.9.1.3.1.6.4.7.5.3.9.2 1.2-.1.3-.3.6-.7.7-1.2.1-.4.2-.7.2-1.1zm-5.8 15.5l-.3.3c-.3.3-.7.4-1.1.5s-.8 0-1.1-.2c-.3-.2-.6-.5-.8-.8-.6-1-.6-2.1-.4-3.3.1-.6.3-1.2.5-1.7.3-.6.6-1 1-1.4.6-.5 1.2-.6 1.9-.5.3.1.6.3.8.5.1.1.2.3.3.4l.1.1v-.1c.1-.8.3-1.7.3-2.5 0-.1.1-.1.1-.1H53c.1 0 .1 0 .1.1 0 .2-.1.6-.1.8-.1.6-.2 1.2-.3 1.9-.1.3-.1.8-.1 1.1-.1 1-.3 1.9-.4 2.9-.1.9-.3 1.7-.3 2.6 0 .1-.1.1-.1.1h-1.4c-.1 0-.1-.1-.1-.1-.1-.2-.1-.4-.1-.6zm-2-2.7c0 .4 0 .8.2 1.2.1.1.2.3.4.3.7.1 1-.2 1.3-.8.1-.2.2-.5.3-.7.1-.7.2-1.4 0-2.1-.2-.6-.9-.8-1.4-.4-.3.2-.5.5-.6.8-.1.7-.2 1.2-.2 1.7zM13 9c-.1.2-.3.3-.4.4-.5.4-1 .5-1.5.5-.6 0-1.1-.2-1.4-.7-.3-.4-.5-.9-.5-1.5 0-.4.1-.8.3-1.2.2-.6.6-1 1.2-1.3.5-.3 1-.3 1.5-.4.4 0 .8-.1 1.2 0 .1 0 .1 0 .1-.1.1-.1.1-.3.1-.5s-.1-.4-.3-.5c-.5-.2-1-.1-1.4-.1s-.9.1-1.3.3c-.4.1-.4.1-.4-.1.1-.5.1-1 .2-1.4 0-.1 0-.1.1-.1.6-.1 1.1-.3 1.7-.3.6-.1 1-.1 1.6.1.4.1.8.3 1.1.6.3.3.4.6.5 1 .1.8-.1 1.4-.1 2.2-.1.4-.3 1.1-.3 1.6 0 .3-.1.7-.1 1-.1.3-.1.7-.1 1 0 .1-.1.2-.2.2h-1.3c-.3.1-.3 0-.3 0V9zm-.3-2.7c-.3 0-.5.1-.8.1-.3.1-.6.3-.8.6-.1.3-.1.5-.1.8 0 .3.3.6.6.6.6 0 1-.3 1.2-.8.1-.3.2-.6.3-1 0-.2 0-.2-.2-.3h-.2zM45 9c-.1.1-.3.3-.5.4-.3.3-.6.3-1 .4-.4.1-.8.1-1.2-.1-.3-.1-.5-.3-.7-.5-.5-.7-.6-1.4-.4-2.2.1-.7.5-1.2 1-1.7.5-.3 1-.5 1.6-.6.5-.1.9-.1 1.4 0 .1 0 .2 0 .2-.1s0-.1.1-.2c.1-.4-.1-.7-.5-.7-.4-.1-.9-.1-1.3-.1-.5.1-.9.1-1.3.3-.1.1-.1 0-.1-.1.1-.5.1-1 .3-1.5 0-.1 0-.1.1-.1.3-.2.7-.3 1.2-.4.6-.1 1.2-.1 1.9.1.5.1.9.3 1.2.8l.3.6c.1.8 0 1.7-.1 2.5-.1.7-.2 1.3-.3 2-.1.4-.1.8-.1 1.2 0 .2-.1.5-.1.7 0 .1-.1.1-.1.1h-1.4c-.1 0-.1 0-.1-.1-.1-.3-.1-.5-.1-.7zm-2-1.6c0 .3.1.6.4.8.6.2 1.2-.1 1.4-.6.1-.3.2-.7.3-1 0-.2 0-.2-.2-.3-.3 0-.7 0-1 .1-.5.1-.9.6-.9 1zm-12.9.3l-.3 1.8c0 .1-.1.1-.1.1-1 .3-2 .4-3 .1-.6-.1-1.2-.5-1.6-1-.3-.5-.5-1-.6-1.5-.1-.8-.1-1.4.1-2.2.1-.6.3-1.2.7-1.7.3-.6.8-1 1.4-1.2.7-.3 1.4-.3 2.1-.1.5.1.9.5 1.2.9.2.3.4.8.4 1.2.1.8 0 1.7-.1 2.4 0 .1-.1.1-.2.1h-3.5c-.1 0-.2 0-.2.2 0 .3.1.7.3 1 .2.2.6.3.8.4.6.1 1 .1 1.6-.1.4-.2.7-.3 1-.4zM27.7 5h.6c.4 0 .5 0 .4-.5 0-.3-.1-.6-.3-.8-.5-.4-1.1-.2-1.4.3-.1.2-.3.5-.3.8 0 .1 0 .1.1.1.2.1.6.1.9.1zm-6.4 15.4c-.1.1-.2.3-.3.4-.3.3-.6.6-1 .8-.5.2-1 .3-1.4 0-.3-.1-.5-.4-.7-.7-.2-.3-.3-.6-.3-1-.1-.4-.1-.9-.1-1.3.1-1 .3-2 .3-3 .1-.6.2-1.1.2-1.7 0-.1 0-.1.1-.1h1.8c.1 0 .1.1.1.1-.1.3-.1.7-.1 1-.1 1-.3 1.9-.4 2.9-.1.3-.1.7 0 1 .1.3.3.6.6.6s.6-.1.8-.3c.4-.5.6-1 .6-1.7.1-.8.3-1.4.3-2.2.1-.5.1-.9.2-1.4 0-.1.1-.1.1-.1h1.7c.1 0 .1.1.1.1-.1.5-.1 1-.2 1.5-.1.6-.2 1.3-.3 1.9-.1.3-.1.7-.1 1-.1 1-.3 2-.3 3 0 .1-.1.1-.1.1h-1.5c-.1 0-.1-.1-.1-.1.1-.3.1-.6.1-.9-.1.3-.1.2-.1.1zm-9.9-.7c-.1.3-.1.5-.1.8-.1.3-.1.6-.1 1 0 .1-.1.2-.2.2-.3.1-.7.2-1 .2-.6.1-1.3.1-1.9-.1-.3-.1-.7-.3-1-.6-.4-.5-.6-1-.8-1.6-.1-.6-.1-1.2-.1-1.9.1-.6.2-1.2.5-1.8.1-.5.3-.9.6-1.2.2-.3.5-.5.8-.6.6-.3 1.3-.4 2-.2.4.1.8.3 1 .7.3.3.4.7.6 1.1.2.8.1 1.5 0 2.3 0 .1-.1.3-.1.4s-.1.1-.2.1H8.1c-.1 0-.2.1-.2.2 0 .3.1.7.3 1 .2.2.4.3.7.4.6.1 1 .1 1.6-.1.3-.1.5-.2.9-.3zM9 17h.9c.1 0 .1 0 .1-.1.1-.3.1-.7-.1-1-.3-.6-1-.6-1.4-.1-.3.3-.4.6-.5 1 0 .1 0 .1.1.1.3.1.7.1.9.1zm24 2.7c-.1.6-.1 1-.3 1.6v.1c0 .3-.1.3-.3.4-.6.1-1.2.3-1.8.2s-1.2-.2-1.7-.6c-.6-.4-.8-.9-1-1.5-.1-.6-.2-1-.2-1.6 0-.5.1-1 .2-1.4.1-.3.2-.7.3-1.1.2-.6.6-1 1-1.3.6-.5 1.4-.7 2.2-.6.9.2 1.4.8 1.7 1.6.2.6.2 1.1.1 1.7 0 .4-.1.8-.2 1.2 0 .1-.1.1-.2.1h-3.3c-.1 0-.2.1-.2.2 0 .3.1.6.2.8.1.3.4.4.8.5.6.1 1.1.1 1.7-.1.3 0 .6-.1 1-.2zM30.7 17h.9c.1 0 .1 0 .1-.1v-.6c-.1-.7-.7-1-1.2-.7-.5.3-.6.7-.8 1.2 0 .1.1.1.1.1.3.1.5.1.9.1zm27.6 2.7l-.3 1.8c0 .1-.1.1-.1.2-.9.3-1.9.4-2.8.1-.6-.2-1.2-.6-1.5-1.2-.3-.5-.4-1-.5-1.6-.1-.8 0-1.6.2-2.3.1-.5.3-1 .6-1.4.2-.3.5-.7.9-1 .5-.3 1-.6 1.7-.6.8.1 1.4.3 1.9 1.1.3.5.4 1 .4 1.6 0 .7-.1 1.3-.2 1.9 0 .1-.1.1-.2.1h-3.3c-.1 0-.2.1-.2.2 0 .5.1.9.6 1.2.2.1.5.2.7.2.7.1 1.3-.1 2-.3h.1zM56.1 17h.9c.1 0 .1 0 .1-.1v-.6c-.1-.6-.7-.9-1.2-.6-.5.3-.6.8-.8 1.2 0 .1.1.1.1.1h.9zm-17 2.4c-.1.6-.1 1.2-.3 1.9-.1.3-.1.3-.3.4-.8.2-1.5.3-2.3 0-.3-.1-.6-.3-.8-.5l-.6-.6c-.2-.3-.3-.7-.5-1-.2-.7-.3-1.4-.2-2.1 0-.6.1-1.2.2-1.8.1-.3.2-.7.3-1s.3-.6.5-.9c.3-.4.6-.8 1-1.1.3-.2.7-.3 1-.5.4-.1.8-.1 1.2-.1.6.1 1 .2 1.6.4.1 0 .1.1.1.1-.1.6-.2 1.3-.3 1.9-.1-.1-.3-.1-.4-.2-.4-.2-.8-.3-1.3-.3-.3 0-.6.1-.9.3-.7.5-1 1.1-1.2 1.9-.1.6-.2 1.1-.2 1.7s.1 1 .4 1.4c.4.6 1 .8 1.7.6.6-.2 1-.3 1.3-.5zM15.5 7.9c.6.2 1.3.3 2 .3.2 0 .4-.1.6-.1.3-.3.3-.8 0-1-.3-.2-.8-.4-1.1-.6-.5-.5-.9-.9-1-1.5-.1-.4-.1-.9.1-1.3.1-.3.3-.7.5-1 .2-.3.6-.5.8-.6.6-.2 1.1-.3 1.7-.3.5 0 .9.1 1.4.1.1 0 .1.1.1.1-.1.5-.1 1-.2 1.5 0 .1-.1.1-.2.1-.4-.1-.8-.1-1.2-.1-.2 0-.4.1-.6.1-.3.3-.4.4-.4.7 0 .2.1.4.3.6.3.2.7.3 1 .6.6.3.8.8.9 1.4.1.6.1 1.1-.1 1.7-.1.3-.3.7-.7.9-.6.4-1.2.5-1.9.5-.8 0-1.4-.1-2.1-.2-.1 0-.1 0-.1-.1.1-.7.1-1.3.2-1.8zm1.1 11.7c0 .1-.1.3-.1.5 0 .4-.1.8-.1 1.2 0 .2-.1.3-.3.3-.5.1-.9.2-1.4.2-.7 0-1.3-.3-1.7-.8-.3-.3-.5-.8-.6-1.2-.2-.8-.3-1.7-.1-2.6.1-.3.2-.7.3-1 .2-.5.4-.9.8-1.2.7-.7 1.5-1.1 2.5-1 .5.1 1 .2 1.4.4.1 0 .1.1.1.2-.1.6-.2 1-.3 1.6 0 .1-.1.1-.1.1-.4-.3-.8-.4-1.3-.3-.3.1-.6.2-.8.5-.6.8-.7 1.7-.5 2.6.1.3.2.6.4.8.3.3.7.4 1.1.3.2-.3.4-.5.7-.6zm7-17.6h1c0 .6-.2 1.2-.2 1.8 0 .1-.1.1-.1.1h-.7c-.2 0-.2 0-.3.2-.1.5-.3 1.1-.3 1.7-.1.6-.1 1-.2 1.6 0 .1 0 .3.1.4.1.1.2.2.3.2h.5c.1 0 .1 0 .1.1-.1.3-.1.8-.2 1.1v.2c0 .1-.1.3-.2.3-.4.1-.8.2-1.2.2s-.8-.1-1.1-.4c-.2-.2-.3-.4-.3-.7-.1-.5-.1-1 0-1.4.2-.7.2-1.5.4-2.2.1-.3.1-.6.1-1 .1-.9.3-1.7.4-2.6.1-.3.1-.5.1-.8 0-.1 0-.1.1-.1h1.7c.1 0 .1 0 .1.1 0 .5 0 .9-.1 1.2zm10 1.1c.1-.1.2-.3.3-.4.3-.4.7-.8 1.3-.8.2 0 .2 0 .1.2-.1.3-.3.7-.4 1-.1.3-.1.6-.3 1 0 .1 0 .1-.1.1-.2 0-.5.1-.6.2l-.3.3c-.2.5-.3 1-.4 1.5-.1.8-.2 1.5-.3 2.1-.1.4-.1.9-.2 1.3 0 .1 0 .1-.1.1h-1.7c-.1 0-.1 0-.1-.1.1-.6.2-1.2.2-1.8.1-.6.2-1.2.3-1.7.1-.3.1-.7.1-1 .1-.8.3-1.7.4-2.5 0-.1.1-.3.1-.4 0-.1.1-.1.1-.1h1.6c.1 0 .1 0 .1.1 0 .2-.1.6-.1.9zm16.7 0c.1-.2.3-.3.4-.6.3-.4.7-.7 1.2-.6.2 0 .2.1.1.2-.1.2-.1.3-.3.6-.1.4-.3.9-.3 1.4 0 .1-.1.1-.2.1-.3 0-.6.2-.8.5-.3.7-.4 1.4-.6 2.2-.1.3-.1.6-.1.9l-.3 1.8c0 .1-.1.1-.1.1h-1.7c-.1 0-.1 0-.1-.1.1-.8.3-1.7.4-2.5s.3-1.7.4-2.6c.1-.8.3-1.7.3-2.4 0-.1.1-.1.2-.1h1.4c.1 0 .1 0 .1.1v1zM26.5 15c.1-.2.3-.4.5-.6.3-.3.6-.6 1-.6.3 0 .3 0 .1.3-.1.3-.2.6-.3.8-.1.3-.2.8-.3 1.2 0 .1 0 .1-.1.1-.5-.1-.8.3-.9.7-.2.6-.3 1-.4 1.6-.1.9-.3 1.9-.4 2.8 0 .1 0 .3-.1.4 0 .1-.1.1-.1.1h-1.6c-.1 0-.1-.1-.1-.1.1-.6.2-1.2.3-1.9.1-.9.3-1.8.4-2.8.1-1 .3-2 .4-3 0-.1 0-.1.1-.1h1.4c.1 0 .1.1.1.1 0 .3-.1.5-.1.8.1.1.1.1.1.2zm33.1-5.1c-.7 0-1.2-.6-1.2-1.2 0-.7.5-1.2 1.2-1.2s1.2.5 1.2 1.2c0 .6-.5 1.2-1.2 1.2zm-.8-1.3c0 .6.4 1 .9 1 .4 0 .9-.4.9-1s-.4-.9-.8-.9c-.7 0-1 .4-1 .9zm.8 12.3v-.5c0-.1 0-.1-.1-.1h-.1c-.1 0-.1 0-.1-.1s.1-.1.1-.1h.8c.1 0 .1.1.1.1s0 .1-.1.1c-.3 0-.3 0-.3.3v.8c0 .1-.1.1-.1.1-.1 0-.1-.1-.1-.1-.1-.2-.1-.4-.1-.5z"/><path d="M59.2 8.6v-.4c0-.1 0-.1.1-.1.2 0 .4-.1.6 0 .2.1.3.3.1.5-.1.1-.1.1-.1.2V9s.1.1 0 .1-.2.1-.2-.1c0-.1-.1-.1-.1-.3 0-.1-.1-.1-.1-.1-.1 0-.1.1-.1.1v.2c0 .1 0 .1-.1.1s-.1 0-.1-.1v-.3zm.2-.2c0 .1-.1.2.1.2.1 0 .3 0 .3-.1s-.1-.1-.2-.1c-.1-.1-.2-.1-.2 0z"/></g></symbol><symbol viewBox="0 0 20 16" id="menu" xmlns="http://www.w3.org/2000/svg"><path d="M0 0h20v2H0zm0 14h20v2H0zm0-7h20v2H0z" fill="#00519E"/></symbol><symbol viewBox="0 0 54 54" id="new" xmlns="http://www.w3.org/2000/svg"><path fill="#FCAE17" d="M0 0h54v54H0z"/><path d="M7.4 21h2.8l5.6 9v-9H18v12h-2.7l-5.7-9.3V33H7.4V21zm13.2 0h8v1.9h-5.8V26h5.5v1.8h-5.5v3.4h6.1V33h-8.3V21zm9.2 0h2.3l2.3 8.8 2.7-8.8h2.2l2.6 8.8 2.4-8.8h2.3l-3.5 12H41l-2.8-9-2.8 9h-2.1l-3.5-12z" fill="#FFF"/></symbol><symbol viewBox="0 0 34 34" id="ok" xmlns="http://www.w3.org/2000/svg"><g fill="#FF6700"><path d="M17 14.6c1.1 0 2-.9 2-2 0-1.2-.8-2-2-2-1.1 0-2 .9-2 2s.9 2 2 2z"/><path d="M0 0v34h34V0H0zm17 8c2.7 0 4.6 2 4.6 4.6 0 2.9-2.4 4.7-4.6 4.6-2.6 0-4.6-2-4.6-4.6 0-2.3 1.7-4.6 4.6-4.6zm4.6 11.9c-.7.4-1.4.7-2.1 1-.2.1-.3.1-.6.2.2.2.3.3.4.5l2.1 2.1c.6.6.6 1.4.1 1.9s-1.3.5-1.9-.1l-2.2-2.2c-.2-.2-.4-.2-.6 0-.7.8-1.5 1.5-2.2 2.2-.4.4-1 .6-1.5.4-.9-.3-1.1-1.4-.4-2.1.7-.8 1.5-1.5 2.2-2.2.1-.1.2-.3.3-.4-.9-.4-1.8-.8-2.6-1.2-.6-.3-.8-.9-.6-1.5.3-.8 1.1-1.2 1.9-.7 1 .5 2 .9 3.1.9 1.2 0 2.3-.3 3.3-.9.8-.5 1.8-.1 2 .9 0 .4-.2.9-.7 1.2z"/></g></symbol><symbol viewBox="-3 -3 60 60" id="premium" xmlns="http://www.w3.org/2000/svg"><path fill="#D6A912" d="M-3-3h60v60H-3z"/><path d="M4.2 11.3h3.9c2.8 0 4.5 1 4.5 3.5 0 2.7-2.1 3.6-4.7 3.6H6.4v5H4.2V11.3zm3.7 5.3c1.4 0 2.7-.3 2.7-1.8 0-1.4-1.3-1.7-2.6-1.7H6.4v3.5h1.5zm6.7-5.3h4.2c2.3 0 4.4.9 4.4 3.5 0 1.7-1.1 2.9-2.8 3.2l3.2 5.3H21l-2.8-5.1h-1.6v5.1h-2.1v-12zm3.9 5.2c1.2 0 2.6-.3 2.6-1.8 0-1.3-1.3-1.6-2.4-1.6h-1.9v3.4h1.7zm6.8-5.2h8v1.9h-5.8v3.1H33v1.8h-5.5v3.4h6.1v1.9h-8.3V11.3zm-21.1 19h3.3l3.1 8.6h.1l3.1-8.6h3.4v12h-2.1v-9.7l-3.7 9.7H9.9l-3.6-9.7v9.7h-2v-12zm15.7 0H22v12h-2.1v-12zm14.3 7.6c0 2.9-2.1 4.7-4.8 4.7s-4.8-1.8-4.8-4.7v-7.6h2.1v7.5c0 1.4.6 2.9 2.7 2.9s2.7-1.5 2.7-2.9v-7.5h2.1v7.6zm2.6-7.6h3.3l3.1 8.6h.1l3.1-8.6h3.4v12h-2.1v-9.7L44 42.4h-1.5l-3.6-9.7v9.7h-2V30.3z" fill="#FFF"/></symbol><symbol viewBox="0 0 54 54" id="sale" xmlns="http://www.w3.org/2000/svg"><path fill="#FF002E" d="M0 0h54v54H0z"/><path d="M14.2 23.5c-.5-.6-1.4-1-2.2-1-1 0-2.1.5-2.1 1.6s.9 1.4 2.3 1.9c1.5.5 3.5 1.2 3.5 3.5 0 2.6-2 3.8-4.4 3.8-1.6 0-3.2-.6-4.1-1.7l1.5-1.4c.6.8 1.7 1.3 2.6 1.3 1 0 2.2-.5 2.2-1.8s-1.3-1.6-2.8-2.1c-1.5-.5-3-1.2-3-3.4 0-2.4 2.2-3.5 4.4-3.5 1.2 0 2.6.4 3.5 1.3l-1.4 1.5zm7.4-2.5h1.9l5.2 12h-2.4l-1.1-2.8H20L18.8 33h-2.4l5.2-12zm2.7 7.4l-1.9-4.9-1.9 4.9h3.8zm5.5-7.4H32v10.1h5.1V33h-7.3V21zm8.7 0h8v1.9h-5.8V26h5.5v1.8h-5.5v3.4h6.1V33h-8.3V21z" fill="#FFF"/></symbol><symbol viewBox="0 0 27 27" id="search" xmlns="http://www.w3.org/2000/svg"><path fill="#A5A5A5" d="M26.5 23.8l-5.2-5.2h-.2c1.4-2 2.3-4.3 2.3-6.8C23.4 5.2 18.2 0 11.7 0S0 5.2 0 11.7s5.2 11.7 11.7 11.7c2.5 0 4.9-.9 6.8-2.3v.2l5.2 5.2c.7.7 1.8.7 2.5 0 1-.9 1-2 .3-2.7zm-14.8-4.2c-4.5 0-8.1-3.6-8.1-8.1s3.6-8.1 8.1-8.1 8.1 3.6 8.1 8.1c0 4.3-3.8 8.1-8.1 8.1z"/></symbol><symbol viewBox="0 0 27 27" id="search-mob" xmlns="http://www.w3.org/2000/svg"><path fill="#00519E" d="M26.7 25.2l-5.9-5.9c1.7-2 2.7-4.7 2.7-7.5C23.5 5.3 18.2 0 11.8 0S0 5.1 0 11.7s5.3 11.8 11.7 11.8c2.8 0 5.4-1 7.4-2.7l5.9 5.9c.5.5 1.1.5 1.6 0 .5-.4.5-1.2.1-1.5zm-15-4c-5.2 0-9.5-4.3-9.5-9.5s4.3-9.5 9.5-9.5 9.5 4.3 9.5 9.5-4.3 9.5-9.5 9.5z"/></symbol><symbol viewBox="17 19.5 20 15" id="skype" xmlns="http://www.w3.org/2000/svg"><path d="M33.9 28.1c.1-.4.1-.7.1-1.1 0-3.8-3.1-7-7-7-.4 0-.7 0-1.1.1-.6-.4-1.4-.6-2.2-.6-2.3 0-4.2 1.9-4.2 4.2 0 .8.2 1.6.6 2.2 0 .4-.1.7-.1 1.1 0 3.8 3.1 7 7 7 .4 0 .7 0 1.1-.1.6.4 1.4.6 2.2.6 2.3 0 4.2-1.9 4.2-4.2 0-.8-.2-1.6-.6-2.2zm-3.6 2.1c-.3.4-.7.8-1.3 1-.6.2-1.2.4-2 .4-.9 0-1.7-.2-2.3-.5-.4-.2-.8-.5-1-.9-.3-.4-.4-.8-.4-1.2 0-.2.1-.4.2-.6.2-.2.4-.2.6-.2.2 0 .4.1.5.2.1.1.3.3.4.5.1.3.2.5.4.7.1.2.3.3.6.4.2.1.6.2 1 .2.6 0 1-.1 1.3-.4.3-.2.5-.5.5-.9 0-.3-.1-.5-.3-.7-.2-.2-.4-.3-.7-.4-.3-.1-.7-.2-1.2-.3-.7-.1-1.2-.3-1.7-.5s-.8-.5-1.1-.8c-.3-.3-.4-.8-.4-1.3s.1-.9.4-1.3c.3-.4.7-.7 1.2-.9.5-.2 1.2-.3 1.9-.3.6 0 1.1.1 1.5.2.4.1.8.3 1.1.5.3.2.5.5.6.7.1.2.2.5.2.7 0 .2-.1.4-.2.6-.2.2-.4.3-.6.3-.2 0-.4-.1-.5-.2-.1-.1-.2-.3-.4-.5-.2-.3-.4-.6-.6-.8-.2-.2-.6-.3-1.1-.3-.5 0-.9.1-1.2.3-.3.2-.4.4-.4.7 0 .2 0 .3.1.4.1.1.2.2.4.3.2.1.4.2.5.2.2.1.5.1.9.2.5.1 1 .2 1.4.4.4.1.8.3 1.1.5.3.2.5.5.7.8.2.3.3.7.3 1.1 0 .8-.1 1.2-.4 1.7z"/></symbol><symbol viewBox="0 0 15 14" id="star" xmlns="http://www.w3.org/2000/svg"><path fill="#FFB821" d="M7.5 11.9L12 14l-.6-5 3.5-3.7-5-.9L7.5 0 5.1 4.4l-5 .9L3.6 9 3 14z"/></symbol><symbol viewBox="0 0 15 14" id="star-cur" xmlns="http://www.w3.org/2000/svg"><path d="M7.5 11.9L12 14l-.6-5 3.5-3.7-5-.9L7.5 0 5.1 4.4l-5 .9L3.6 9 3 14z"/></symbol><symbol viewBox="0 0 15 14" id="star-gray" xmlns="http://www.w3.org/2000/svg"><path fill="#ddd" d="M7.5 11.9L12 14l-.6-5 3.5-3.7-5-.9L7.5 0 5.1 4.4l-5 .9L3.6 9 3 14z"/></symbol><symbol viewBox="17 19.5 20 15" id="track" xmlns="http://www.w3.org/2000/svg"><path d="M28.7 32.7c3.7-5.6 5.3-11.5 5.4-11.7l.4-1.5-1.5.4c-.2.1-6.1 1.7-11.7 5.4l-1.8 1.2 6.7 1.3 1.3 6.7 1.2-1.8zm-1-6.4l4.2-4.2c-.6 1.7-1.7 4.7-3.5 7.8l-.7-3.6z"/></symbol><symbol viewBox="0 0 34 34" id="twitter" xmlns="http://www.w3.org/2000/svg"><path fill="#00AADF" d="M0 0v34h34V0H0zm24.2 13.3v.5c0 4.9-3.7 10.5-10.5 10.5-2.1 0-4-.6-5.7-1.7.3 0 .6.1.9.1 1.7 0 3.3-.6 4.6-1.6-1.6 0-3-1.1-3.4-2.6.2 0 .5.1.7.1.3 0 .7 0 1-.1-1.7-.3-3-1.8-3-3.6.5.3 1.1.4 1.7.5-1-.7-1.6-1.8-1.6-3.1 0-.7.2-1.3.5-1.9 1.8 2.2 4.5 3.7 7.6 3.9-.1-.3-.1-.6-.1-.8 0-2 1.7-3.7 3.7-3.7 1.1 0 2 .4 2.7 1.2.8-.2 1.6-.5 2.3-.9-.3.9-.9 1.6-1.6 2 .7-.1 1.5-.3 2.1-.6-.6.7-1.2 1.3-1.9 1.8z"/></symbol><symbol viewBox="0 0 60 60" id="users" xmlns="http://www.w3.org/2000/svg"><path d="M41.014 45.389l-9.553-4.776A2.63 2.63 0 0 1 30 38.248v-3.381c.229-.28.47-.599.719-.951a22.886 22.886 0 0 0 2.954-5.799A3.968 3.968 0 0 0 36 24.5v-4c0-.963-.36-1.896-1-2.625v-5.319c.056-.55.276-3.824-2.092-6.525C30.854 3.688 27.521 2.5 23 2.5s-7.854 1.188-9.908 3.53c-2.368 2.701-2.148 5.976-2.092 6.525v5.319c-.64.729-1 1.662-1 2.625v4c0 1.217.553 2.352 1.497 3.109.916 3.627 2.833 6.36 3.503 7.237v3.309c0 .968-.528 1.856-1.377 2.32L4.702 45.34A9.02 9.02 0 0 0 0 53.262V57.5h46v-4.043a8.972 8.972 0 0 0-4.986-8.068z"/><path d="M55.467 46.526l-9.723-4.21c-.23-.115-.485-.396-.704-.771l6.525-.005s.377.037.962.037c1.073 0 2.638-.122 4-.707a2.94 2.94 0 0 0 1.669-1.907 2.967 2.967 0 0 0-.426-2.523c-1.865-2.654-6.218-9.589-6.354-16.623-.003-.121-.397-12.083-12.21-12.18-1.187.01-2.309.156-3.372.413.792 2.094.719 3.968.665 4.576v4.733c.648.922 1 2.017 1 3.141v4a5.496 5.496 0 0 1-2.607 4.662 24.305 24.305 0 0 1-3.392 6.225v2.86c0 .442.236.825.631 1.022l9.553 4.776a10.463 10.463 0 0 1 5.815 9.41V57.5H60v-3.697c0-3.092-1.718-5.87-4.533-7.277z"/></symbol><symbol viewBox="17 19.5 20 15" id="velcom" xmlns="http://www.w3.org/2000/svg"><path d="M21.374 19.838l4.384 4.384-4.384 4.384-4.384-4.384zm11.294.014l4.384 4.384-4.384 4.384-4.384-4.384zm-5.654 5.57l4.384 4.384-4.384 4.384-4.384-4.384z"/></symbol><symbol viewBox="0 0 51.2 22" id="verified_by_visa" xmlns="http://www.w3.org/2000/svg"><g fill="#A4A4A4"><path d="M3.1 7.1C4.2 5 5.3 3 6.3.9c.1-.3.3-.4.6-.4h1c.3 0 .4.1.2.3-.5 1-1.1 2-1.6 3.1C5.6 5.6 4.6 7.3 3.8 9c-.2.3-.3.4-.6.4-.4-.1-1 .1-1.3-.1-.3-.2-.3-.7-.3-1.2C1 5.8.5 3.5 0 1.2-.1.9 0 .7.3.7.7.6 1 .6 1.4.5c.3-.1.4.1.5.3.3 2 .8 4 1.2 5.9v.4zm34 1.5c-.1 0-.2.1-.3.2-.3.3-.8.5-1.2.5-1.4.3-2.3-.4-2.5-1.8-.1-1.1.1-2 .7-3 .8-1.2 2-1.8 3.6-1.4.1 0 .3.1.4.1.1-.9.3-1.7.4-2.6.1-.3.1-.3.4-.4.3 0 .7-.1 1-.1s.3 0 .3.3c-.3 2.2-.7 4.4-1 6.6-.1.7-.2 1.4-.3 2-.1.3-.1.4-.4.4h-.1c-.9 0-.9 0-1-.8zm-2.4-1.9c0 .9.3 1.3.9 1.4.5.1 1.6-.5 1.6-1 .1-.8.2-1.5.3-2.2.1-.2 0-.3-.2-.4-1-.3-1.8-.1-2.3 1-.2.4-.3.8-.3 1.2zm-2.5.8c.1 1.2 0 1.4-1.1 1.7-.8.3-1.6.3-2.5.1-.9-.2-1.4-.8-1.6-1.6-.2-1.4.1-2.7 1.2-3.8.8-.8 1.8-1 2.8-.8 1.1.2 1.7 1.2 1.6 2.6-.1.9-.1.9-1 .9h-2.8c-.3 0-.3.1-.3.3 0 .9.6 1.4 1.6 1.4.7-.1 1.4-.4 2.1-.8zm-3.5-1.9h2.2c.1 0 .2 0 .3-.1.1-.3-.1-1-.4-1.2-.3-.2-.8-.2-1.2.1-.5.3-.7.7-.9 1.2zM11.9 7.5v.4c0 1 0 1-.9 1.3-.8.3-1.5.3-2.3.3-1.2-.1-1.9-.9-2-2.1C6.6 6 7 4.8 8.1 3.8c.7-.6 1.7-.8 2.7-.6.8.1 1.2.6 1.5 1.4.2.5.1 1.2.1 1.8 0 .3-.1.3-.4.3H8.7c-.3 0-.4.1-.4.4.1.9.7 1.4 1.6 1.3.7-.2 1.4-.5 2-.9zM8.5 5.6h2.3c.1 0 .2 0 .2-.1 0-.4 0-.8-.3-1.1-.3-.3-.7-.3-1-.1-.8.2-1 .6-1.2 1.3zm12.7 3.8c-.8 0-.8 0-.6-.8l.6-3.9c.1-.3-.1-.3-.3-.3-.5 0-.5 0-.5-.6v-.3c0-.3.1-.5.5-.4.4.1.6-.1.6-.5 0-.1.1-.1.1-.3C21.7.7 22.8.1 24.3.1c.3 0 .5.1.4.5 0 .3.1.5-.1.8-.2.3-.5.2-.8.2-.5.1-.7.3-.8.8-.2.9-.2.9.7.9.3 0 .3.1.3.3 0 1 0 1-1 1-.3 0-.5.1-.5.4-.2 1.3-.4 2.7-.6 4-.1.4-.1.5-.5.5 0-.2-.1-.1-.2-.1zm21.9-4.3c.3-.2.7-.4 1-.5.9-.3 1.6.2 1.8 1 .3 1.5-.5 3.2-1.8 3.5-.9.3-1.7.1-2.6-.1-.2-.1-.2-.2-.2-.3.3-2 .6-4 1-6 0-.2.1-.3.3-.3 1-.2 1-.2.8.8-.1.6-.2 1.3-.3 1.9zm1.7 1.5c0-.6-.2-1-.6-1-.5 0-1.2.4-1.3.9-.1.5-.1 1-.2 1.6 0 .2 0 .3.2.3.7.2 1.4-.1 1.7-.8.1-.3.2-.6.2-1zM15.1 4.3c.5-.5.9-1 1.6-1.2.6-.1.6-.1.6.5 0 .3.1.6-.1.9-.1.3-.5.1-.8.3-.3.1-.5.2-.8.4-.5.3-.9.7-.9 1.4-.1.9-.3 1.7-.4 2.6 0 .3-.1.3-.3.3h-.2c-1.1 0-1.1 0-1-1.1.3-1.6.5-3.1.8-4.7.1-.3.1-.3.3-.3.3 0 .8-.1 1 .1.3-.1.1.4.1.7.1 0 .1.1.1.1zm33.5 3.4c.4-.9.8-1.7 1.3-2.6.1-.2.1-.4.3-.4.3-.1.6-.1 1 0 .2.1 0 .2 0 .3-.5 1-1 2-1.6 3-.3.7-.7 1.3-1 2-.4.8-1 1.2-1.9 1.2-.3 0-.4-.1-.4-.4 0-.4.1-.6.5-.5.7.1 1.1-.5.9-1.2-.3-1.3-.5-2.5-.8-3.8-.1-.3-.1-.4.3-.4.8-.2.8-.3 1.1.6.1.7.2 1.5.3 2.2-.1 0 0 0 0 0zM19 3.2c.8 0 .8 0 .7.8-.3 1.7-.5 3.4-.8 5.1-.1.3-.1.4-.4.3h-.4c-.8 0-.8 0-.7-.8.3-1.5.5-3.1.8-4.6 0-.8 0-.8.8-.8zm6.8 0c.8 0 .8 0 .7.8-.3 1.7-.5 3.4-.8 5.1-.1.3-.1.3-.4.3h-1c-.3-.1-.3-.2-.3-.4.3-1.8.6-3.8.9-5.6 0-.1.1-.3.3-.3.2.1.4.1.6.1zm.1-1.1c-.5 0-.8-.3-.8-.8s.5-1 1.1-1c.5 0 .8.3.8.8 0 .6-.5 1-1.1 1zm-6.7 0c-.5 0-.8-.3-.8-.8s.5-1 1.1-1c.5 0 .8.3.8.8-.1.6-.6 1-1.1 1zm-1.5 14.8l-1-4.4c-.1-.6-.6-.8-1.2-.8h-4.2l-.1.2c3.4.8 5.5 2.7 6.5 5z"/><path d="M20.7 11.8L18 18.6l-.3-1c-.5-1.2-2-3-3.8-4.2l2.5 8.4h2.9l4.2-10h-2.8zm2.4 10.1h2.7l1.7-10.1h-2.7zm9.9-6.1c-1-.5-1.6-.8-1.6-1.2 0-.4.5-.8 1.6-.8.9 0 1.6.2 2 .4l.2.1.4-2.2c-.5-.2-1.4-.4-2.5-.4-2.7 0-4.6 1.4-4.6 3.3 0 1.4 1.4 2.3 2.4 2.7 1.1.5 1.4.8 1.4 1.2 0 .7-.8 1-1.6 1-1.1 0-1.7-.1-2.6-.5l-.3-.1-.4 2.3c.7.3 1.8.5 3.1.5 2.9 0 4.8-1.4 4.8-3.5.1-1.2-.6-2.1-2.3-2.8zm9.9-4h-2.1c-.7 0-1.2.2-1.4.8l-4.1 9.2h2.9s.5-1.2.5-1.5h3.5c.1.3.3 1.5.3 1.5H45l-2.1-10zm-3.5 6.4c.2-.5 1.1-2.9 1.1-2.9 0 .1.2-.5.4-1l.2.9s.5 2.4.6 2.9h-2.3v.1z"/></g></symbol><symbol viewBox="0 0 76 60" id="video" xmlns="http://www.w3.org/2000/svg"><g fill="#FFF"><path d="M50.7 0H25.3C11.4 0 0 11.3 0 25.2v9.7C0 48.7 11.4 60 25.3 60h25.3C64.6 60 76 48.7 76 34.8v-9.7C76 11.3 64.6 0 50.7 0zM74 34.8C74 47.6 63.5 58 50.7 58H25.3C12.5 58 2 47.6 2 34.8v-9.7C2 12.4 12.5 2 25.3 2h25.3C63.5 2 74 12.4 74 25.2v9.6z"/><path d="M28.1 40.9L47.9 30 28.1 19.1z"/></g></symbol><symbol viewBox="0 0 58.5 22" id="visa" xmlns="http://www.w3.org/2000/svg"><g fill="#A4A4A4"><path d="M11.1 11.2L9.5 3.6c-.2-1.1-1.1-1.4-2-1.4H.1l-.1.3c5.7 1.4 9.5 4.7 11.1 8.7z"/><path d="M16.4 2.3l-4.7 11.9-.5-1.8c-.9-2.1-3.5-5.2-6.5-7.2L9 19.8h5l7.4-17.4c0-.1-5-.1-5-.1zm4.1 17.5h4.7l2.9-17.5h-4.7zM37.7 9.3C36.1 8.5 35 8 35 7.2c0-.7.9-1.5 2.7-1.5 1.6 0 2.7.3 3.5.7l.4.2.7-3.8c-1-.4-2.5-.8-4.3-.8-4.7 0-8 2.4-8 5.7 0 2.5 2.4 3.9 4.2 4.7 1.9.8 2.5 1.4 2.5 2.1 0 1.1-1.5 1.7-2.9 1.7-1.9 0-2.9-.2-4.5-.9l-.6-.2L28 19c1.1.5 3.2.9 5.3.9 5 0 8.3-2.4 8.3-6 .1-1.8-1.1-3.3-3.9-4.6zm17-7H51c-1.1 0-2 .3-2.5 1.5l-7 16h5s.8-2.1 1-2.6h6.1c.2.6.6 2.6.6 2.6h4.4L54.7 2.3zm-5.9 11.2c.4-1 1.9-4.9 1.9-4.9 0 .1.4-1 .7-1.6l.3 1.6s.9 4.2 1.1 5.1l-4-.2z"/></g></symbol><symbol viewBox="0 0 34 34" id="vk" xmlns="http://www.w3.org/2000/svg"><g fill="#37739D"><path d="M23.5 13.5h-2.4c-.2 0-.3.1-.4.3-.1.3-.2.6-.4.8-.3.7-.7 1.4-1.2 2l-.3.3c-.2.2-.5.1-.5-.1-.1-.2-.1-.4-.1-.6v-2c0-.2 0-.3-.1-.5 0-.3-.2-.4-.5-.4-.4 0-.7-.1-1.1-.1h-.9c-.2 0-.4 0-.6.1-.1.1-.3.2-.4.3-.1.1-.1.1.1.1.1 0 .3.1.4.2.2.1.3.4.3.6.1.6.1 1.2 0 1.7 0 .2-.1.5-.2.7 0 .1-.1.2-.2.1s-.3-.1-.4-.2c-.3-.3-.5-.6-.7-.9-.3-.6-.6-1.1-.9-1.7v-.3c-.1-.3-.3-.4-.6-.4h-2c-.2 0-.3 0-.4.2v.2c.1.3.2.5.4.8l.9 1.8c.3.6.7 1.1 1 1.7.3.5.7.9 1.1 1.3.4.4.8.7 1.3 1 .7.4 1.4.6 2.1.6h.9c.3 0 .4-.2.5-.5 0-.2 0-.5.1-.7 0-.2.1-.4.3-.6.1-.1.2-.1.4 0s.4.3.6.5c.3.3.5.6.8.8.3.3.6.5 1.1.5h2.1c.3 0 .4-.1.5-.4-.1-.5-.5-.9-.8-1.3L22 18.1c-.3-.3-.3-.6-.1-.9.3-.4.7-.9 1-1.3.4-.5.7-1 1-1.5.1-.1.1-.3.2-.5v-.2c-.2-.2-.4-.2-.6-.2z"/><path d="M0 0v34h34V0H0zm26 22.8c0 1.7-1.4 3.2-3.2 3.2H11.2C9.4 26 8 24.6 8 22.8V11.2C8 9.4 9.4 8 11.2 8h11.7c1.7 0 3.2 1.4 3.2 3.2v11.6z"/></g></symbol><symbol viewBox="0 0 76.8 22" id="webpay" xmlns="http://www.w3.org/2000/svg"><path d="M74.6 7.6c-.4 0-.6.1-.8.5-.4.7-.8 1.5-1.2 2.3-.2-.9-.4-1.7-.5-2.5 0-.1-.2-.3-.3-.3h-2.6c.1.2.1.4.2.5.4 1.2.9 2.4 1.3 3.6.1.4.1.8.1 1.2 0 .5-.1.9-.2 1.4h2.6c0-.3.1-.5.1-.8.1-.4.1-1 .3-1.3 1-1.5 2.1-3 3.2-4.5v-.1h-2.2zm-41.1 0c-.3 0-.5.1-.6.4-.3.8-.6 1.6-.8 2.4-.1.4-.3.8-.5 1.2-.2-1-.2-2-.4-3-.1-1.1-.1-1.1-1.2-1.1-1.4 0-1.4 0-2 1.3-.4.9-.8 1.8-1.1 2.8h-.2v-4h-2.5c.2 2.3.3 4.5.5 6.7h1.8c1 0 1 0 1.4-.9.4-1.1.9-2.1 1.3-3.2h.1c.1 1.4.3 2.7.4 4.1h2.4c.3 0 .5-.1.6-.4.6-1.7 1.3-3.3 2-5 .2-.5.4-.9.6-1.4-.6.1-1.2.1-1.8.1zm17.1 1.1c-.2-.8-.8-1-1.5-1.1h-4.8c-.4 2.2-.7 4.5-1.1 6.7h4.6c.3 0 .6-.1.9-.1.9-.2 1.4-.8 1.5-1.8.1-.7-.2-1.1-1-1.5 0 0 0-.1-.1-.1.1 0 .2-.1.3-.1.9-.3 1.4-1.1 1.2-2zm-3.3 4.1c-.4.2-.8.2-1.4.3.1-.6.1-1 .2-1.4.4 0 .7-.1 1 0 .2 0 .5.3.5.5 0 .1-.1.5-.3.6zm0-2.7c-.3 0-.6 0-1 .1.1-.4.1-.8.2-1.1 0-.1.2-.2.3-.2h.4c.4 0 .7.1.8.5 0 .5-.3.7-.7.7zm19-2.5h-2.5c-.4 0-.7.1-.9.5-.7 1.5-1.5 3-2.3 4.5-.3.6-.6 1.1-.9 1.7.1 0 .1.1.2.1h2c.3 0 .5-.1.6-.4.2-.9.8-1.2 1.7-1.1h.1c.9 0 .9 0 1 .9 0 .2.1.4.1.6h2.7c-.4-2.1-.9-4.2-1.2-6.3-.1-.4-.3-.5-.6-.5zm-2.7 3.6c.3-.7.7-1.3 1-2h.1c.1.6.2 1.3.3 2h-1.4zm-5.8-3.5c-1.6-.1-3.2-.1-4.7-.1-.1 0-.2 0-.3.1-.4 2.2-.7 4.4-1.1 6.7h2.6c.1-.6.2-1.2.3-1.9h1.8c1.7 0 2.7-.9 3-2.5.2-1.3-.4-2.2-1.6-2.3zm-1.5 2.9c-.4.2-.9.2-1.5.3.1-.7.2-1.2.3-1.8.4 0 .7 0 1 .1.2.1.6.3.6.5 0 .4-.2.8-.4.9zm-19.4-3c-.1 0-.3.3-.3.4-.2 1.2-.4 2.5-.6 3.8-.1.8-.3 1.7-.4 2.6h5.9c.1-.5.2-1 .3-1.6h-3.3c.1-1 0-.9.9-.9h2c.1 0 .4-.2.4-.3.1-.4.1-.9.2-1.3h-3.2c.1-.3.1-.6.2-.9h3.3c.1-.6.2-1.1.3-1.7-2-.1-3.9-.1-5.7-.1zM19 12.4l2.7-1.3L19 9.8l3-3.4-4.4-.1 1-2.9-2.9 1.1-.3-4.5-3.2 3.1L10.9.3 9.7 2.9 6.4 0l-.1 4.4-2.9-1 1.1 2.8-4.5.3 3.1 3.2-2.8 1.4L3 12.3l-3 3.2 4.4.1-1 2.9 2.9-1.1.3 4.6 3.2-3.1 1.3 2.8 1.2-2.6 3.3 3 .1-4.5 2.9 1-1.1-2.8 4.5-.2-3-3.2zM17 8l.3-.7 2.6.1-1.8 2-.8-.3-1.8.9h-.6c-.1-.3-.2-.5-.3-.7l.4-.6 2-.7zm-4-3.3l-.4-.7 1.9-1.8.1 2.8-.6.2-.6 1.7-.5.5c-.3-.2-.5-.3-.8-.4v-.4l.9-1.9zm-6 8.5l-2 .7-.3.7-2.6-.1 1.7-1.9.9.4 2-1c.1.4.2.7.4 1l-.1.2zm-.2-3.4h-.3l-1.8-.9-.7.4-1.8-2 2.7-.1.2.8 1.9.7.1.2c-.1.2-.2.5-.3.9zm.5-7.7l1.9 1.7-.3 1 1 2v.1c-.3.1-.7.2-1 .3L8.7 7 8 5l-.7-.2V2.1zM9 17.3l.4.7-1.9 1.8-.1-2.8.6-.2.6-1.7.4-.3c.3.2.6.3 1 .4v.3l-1 1.8zm1.8-3.1c-1.8 0-3.2-1.4-3.2-3.2S9 7.8 10.8 7.8 14 9.2 14 11s-1.4 3.2-3.2 3.2zm3.8 5.7l-2-1.8.4-.9-1-2V15c.3-.1.5-.2.8-.3l.4.4.7 2 .7.3v2.5zm2.6-5.1l-.4-.8-2-.7-.4-.4c.1-.2.2-.4.3-.7h.5l2.1 1 .8-.4 1.8 1.9-2.7.1z" fill="#A4A4A4"/></symbol><symbol viewBox="0 0 34 34" id="youtube" xmlns="http://www.w3.org/2000/svg"><g fill="#FF261A"><path d="M15.4 18.9v3.9c-.2.3-.4.4-.6.4-.1 0-.2-.1-.2-.2v-4.1h-.9v4c0 .4 0 .6.1.8.1.3.3.4.6.4s.7-.2 1.1-.6v.5h.9v-5.1h-1zm-1.7-1.7h-3.2v.9h1.1V24h1v-5.9h1.1zm5.2 1.6c-.3 0-.7.2-1 .6v-2.2H17V24h1v-.5c.3.4.6.6 1 .6s.6-.2.7-.6c.1-.2.1-.6.1-1v-2c0-.5 0-.8-.1-1-.1-.5-.4-.7-.8-.7zm0 3.7c0 .5-.1.7-.4.7-.2 0-.3-.1-.5-.2v-3.1c.2-.1.3-.2.5-.2.3 0 .4.2.4.7v2.1zm-2-8.4c.3 0 .4-.2.4-.7v-2.2c0-.5-.1-.7-.4-.7-.3 0-.4.2-.4.7v2.2c-.1.5.1.7.4.7zm4.9 4.7c-.5 0-.8.2-1.1.5-.2.3-.3.7-.3 1.2v1.8c0 .5.1.9.3 1.2.3.3.6.5 1.1.5.5 0 .9-.2 1.1-.6.1-.2.2-.3.2-.5v-.7h-.9v.6c-.1.2-.2.4-.4.4-.3 0-.5-.2-.5-.7v-.9h1.8v-1.1c0-.5-.1-.9-.3-1.2-.1-.3-.5-.5-1-.5zm.5 2h-.9v-.5c0-.5.2-.7.5-.7s.5.2.5.7v.5z"/><path d="M0 0v34h34V0H0zm19 9.8h.9V14c0 .1.1.2.2.2.2 0 .4-.1.6-.4v-4h.9v5.1h-.9v-.6c-.4.4-.7.6-1.1.6-.3 0-.5-.1-.6-.4V9.8zm-2.1-.1c.5 0 .8.2 1.1.5.2.3.3.7.3 1.2v1.8c0 .5-.1.9-.3 1.2-.3.3-.6.5-1.1.5-.5 0-.8-.2-1.1-.5-.2-.3-.3-.7-.3-1.2v-1.8c0-.5.1-.9.3-1.2.3-.3.6-.5 1.1-.5zM13.2 8l.7 2.7.8-2.7h1l-1.2 4.1v2.8h-1v-2.8c-.1-.5-.3-1.2-.6-2.2-.2-.6-.4-1.3-.7-1.9h1zm11.3 13.3c0 1.2-.2 2.4-.2 2.4s-.1 1-.6 1.5c-.6.6-1.2.6-1.5.6-2.1.2-5.3.2-5.3.2s-3.9 0-5.2-.2c-.3-.1-1.1 0-1.7-.6-.5-.5-.6-1.5-.6-1.5s-.2-1.2-.2-2.4v-1.1c0-1.2.2-2.4.2-2.4s.1-1 .6-1.5c.6-.6 1.2-.6 1.5-.6 2.1-.2 5.3-.2 5.3-.2s3.2 0 5.3.2c.3 0 .9 0 1.5.6.5.5.6 1.5.6 1.5s.2 1.2.2 2.4v1.1z"/></g></symbol></svg>